<svg width="62" height="19" viewBox="0 0 62 19" fill="none" xmlns="http://www.w3.org/2000/svg">
<path d="M2 18H16" stroke="#2BCBBA" stroke-width="2" stroke-linecap="round"/>
<path d="M2.47692 14H0.367543L4.2081 3.09091H6.64773L10.4936 14H8.38423L5.47053 5.32812H5.3853L2.47692 14ZM2.54616 9.72266H8.29901V11.31H2.54616V9.72266ZM15.1651 14.1598C14.3484 14.1598 13.647 13.9805 13.0611 13.6218C12.4787 13.2631 12.0295 12.7678 11.7134 12.1357C11.4009 11.5 11.2447 10.7685 11.2447 9.94105C11.2447 9.11009 11.4045 8.37678 11.7241 7.74112C12.0437 7.10192 12.4947 6.60476 13.0771 6.24964C13.663 5.89098 14.3555 5.71165 15.1545 5.71165C15.8185 5.71165 16.4063 5.83416 16.9176 6.07919C17.4325 6.32067 17.8427 6.66335 18.1481 7.10724C18.4535 7.54759 18.6275 8.0625 18.6701 8.65199H16.8271C16.7525 8.25781 16.5749 7.92933 16.2944 7.66655C16.0174 7.40021 15.6463 7.26705 15.1811 7.26705C14.7869 7.26705 14.4407 7.37358 14.1424 7.58665C13.8441 7.79616 13.6115 8.09801 13.4446 8.49219C13.2813 8.88636 13.1996 9.35866 13.1996 9.90909C13.1996 10.4666 13.2813 10.946 13.4446 11.3473C13.608 11.745 13.837 12.0522 14.1317 12.2688C14.43 12.4819 14.7798 12.5884 15.1811 12.5884C15.4652 12.5884 15.7191 12.5352 15.9428 12.4286C16.1701 12.3185 16.3601 12.1605 16.5128 11.9545C16.6655 11.7486 16.7702 11.4982 16.8271 11.2035H18.6701C18.6239 11.7823 18.4535 12.2955 18.1587 12.7429C17.864 13.1868 17.4627 13.5348 16.9549 13.7869C16.4471 14.0355 15.8505 14.1598 15.1651 14.1598ZM23.8224 14.1598C23.0056 14.1598 22.3042 13.9805 21.7183 13.6218C21.1359 13.2631 20.6867 12.7678 20.3706 12.1357C20.0581 11.5 19.9019 10.7685 19.9019 9.94105C19.9019 9.11009 20.0617 8.37678 20.3813 7.74112C20.7009 7.10192 21.1519 6.60476 21.7343 6.24964C22.3202 5.89098 23.0127 5.71165 23.8117 5.71165C24.4758 5.71165 25.0635 5.83416 25.5748 6.07919C26.0898 6.32067 26.4999 6.66335 26.8053 7.10724C27.1107 7.54759 27.2847 8.0625 27.3273 8.65199H25.4843C25.4097 8.25781 25.2322 7.92933 24.9516 7.66655C24.6746 7.40021 24.3035 7.26705 23.8383 7.26705C23.4442 7.26705 23.0979 7.37358 22.7996 7.58665C22.5013 7.79616 22.2687 8.09801 22.1018 8.49219C21.9385 8.88636 21.8568 9.35866 21.8568 9.90909C21.8568 10.4666 21.9385 10.946 22.1018 11.3473C22.2652 11.745 22.4942 12.0522 22.789 12.2688C23.0873 12.4819 23.4371 12.5884 23.8383 12.5884C24.1224 12.5884 24.3763 12.5352 24.6001 12.4286C24.8273 12.3185 25.0173 12.1605 25.17 11.9545C25.3227 11.7486 25.4275 11.4982 25.4843 11.2035H27.3273C27.2812 11.7823 27.1107 12.2955 26.816 12.7429C26.5212 13.1868 26.1199 13.5348 25.6121 13.7869C25.1043 14.0355 24.5077 14.1598 23.8224 14.1598ZM32.4796 14.1598C31.6806 14.1598 30.9881 13.984 30.4022 13.6325C29.8162 13.2809 29.3617 12.7891 29.0385 12.157C28.7189 11.5249 28.5591 10.7862 28.5591 9.94105C28.5591 9.09588 28.7189 8.35547 29.0385 7.71982C29.3617 7.08416 29.8162 6.59055 30.4022 6.23899C30.9881 5.88743 31.6806 5.71165 32.4796 5.71165C33.2786 5.71165 33.9711 5.88743 34.557 6.23899C35.1429 6.59055 35.5957 7.08416 35.9153 7.71982C36.2385 8.35547 36.4 9.09588 36.4 9.94105C36.4 10.7862 36.2385 11.5249 35.9153 12.157C35.5957 12.7891 35.1429 13.2809 34.557 13.6325C33.9711 13.984 33.2786 14.1598 32.4796 14.1598ZM32.4902 12.6151C32.9235 12.6151 33.2857 12.4961 33.5769 12.2582C33.8681 12.0167 34.0847 11.6935 34.2267 11.2887C34.3723 10.8839 34.4451 10.4329 34.4451 9.93572C34.4451 9.43501 34.3723 8.98224 34.2267 8.57741C34.0847 8.16903 33.8681 7.84411 33.5769 7.60263C33.2857 7.36115 32.9235 7.24041 32.4902 7.24041C32.0463 7.24041 31.677 7.36115 31.3823 7.60263C31.0911 7.84411 30.8727 8.16903 30.7271 8.57741C30.585 8.98224 30.514 9.43501 30.514 9.93572C30.514 10.4329 30.585 10.8839 30.7271 11.2887C30.8727 11.6935 31.0911 12.0167 31.3823 12.2582C31.677 12.4961 32.0463 12.6151 32.4902 12.6151ZM43.2515 10.5589V5.81818H45.1798V14H43.3101V12.5458H43.2249C43.0402 13.0039 42.7366 13.3786 42.314 13.6697C41.895 13.9609 41.3783 14.1065 40.7639 14.1065C40.2277 14.1065 39.7536 13.9876 39.3417 13.7496C38.9333 13.5082 38.6137 13.1584 38.3829 12.7003C38.1521 12.2386 38.0367 11.6811 38.0367 11.0277V5.81818H39.9649V10.7294C39.9649 11.2479 40.107 11.6598 40.3911 11.9652C40.6752 12.2706 41.048 12.4233 41.5097 12.4233C41.7938 12.4233 42.069 12.354 42.3353 12.2156C42.6017 12.0771 42.82 11.8711 42.9905 11.5977C43.1645 11.3207 43.2515 10.9744 43.2515 10.5589ZM49.0909 9.20597V14H47.1626V5.81818H49.0057V7.20845H49.1016C49.2898 6.75035 49.5898 6.38636 50.0018 6.11648C50.4173 5.84659 50.9304 5.71165 51.5412 5.71165C52.1058 5.71165 52.5977 5.83239 53.0167 6.07386C53.4393 6.31534 53.766 6.66513 53.9968 7.12322C54.2312 7.58132 54.3466 8.13707 54.343 8.79048V14H52.4148V9.08878C52.4148 8.5419 52.2727 8.11399 51.9886 7.80504C51.7081 7.49609 51.3192 7.34162 50.8221 7.34162C50.4847 7.34162 50.1847 7.41619 49.9219 7.56534C49.6626 7.71094 49.4585 7.92223 49.3093 8.19922C49.1637 8.47621 49.0909 8.81179 49.0909 9.20597ZM60.3888 5.81818V7.30966H55.6854V5.81818H60.3888ZM56.8466 3.85795H58.7749V11.5391C58.7749 11.7983 58.8139 11.9972 58.892 12.1357C58.9737 12.2706 59.0803 12.3629 59.2116 12.4126C59.343 12.4624 59.4886 12.4872 59.6484 12.4872C59.7692 12.4872 59.8793 12.4783 59.9787 12.4606C60.0817 12.4428 60.1598 12.4268 60.2131 12.4126L60.538 13.9201C60.435 13.9556 60.2876 13.9947 60.0959 14.0373C59.9077 14.0799 59.6768 14.1048 59.4034 14.1119C58.9205 14.1261 58.4854 14.0533 58.0984 13.8935C57.7113 13.7301 57.4041 13.478 57.1768 13.1371C56.9531 12.7962 56.843 12.37 56.8466 11.8587V3.85795Z" fill="black"/>
</svg>
