<svg width="168" height="52" viewBox="0 0 168 52" fill="none" xmlns="http://www.w3.org/2000/svg">
<rect width="168" height="52" rx="4" fill="black"/>
<line x1="61" y1="36" x2="70" y2="36" stroke="#2BCBBA" stroke-width="2" stroke-linecap="round"/>
<path d="M64.0455 32H60.2784V20.3636H64.1648C65.3049 20.3636 66.2841 20.5966 67.1023 21.0625C67.9205 21.5246 68.5473 22.1894 68.983 23.0568C69.4223 23.9205 69.642 24.9564 69.642 26.1648C69.642 27.3769 69.4205 28.4186 68.9773 29.2898C68.5379 30.161 67.9015 30.8314 67.0682 31.3011C66.2348 31.767 65.2273 32 64.0455 32ZM62.0341 30.4659H63.9489C64.8352 30.4659 65.572 30.2992 66.1591 29.9659C66.7462 29.6288 67.1856 29.142 67.4773 28.5057C67.7689 27.8655 67.9148 27.0852 67.9148 26.1648C67.9148 25.2519 67.7689 24.4773 67.4773 23.8409C67.1894 23.2045 66.7595 22.7216 66.1875 22.392C65.6155 22.0625 64.9053 21.8977 64.0568 21.8977H62.0341V30.4659ZM75.4503 32.1761C74.5904 32.1761 73.8499 31.9924 73.2287 31.625C72.6113 31.2538 72.134 30.733 71.7969 30.0625C71.4635 29.3883 71.2969 28.5985 71.2969 27.6932C71.2969 26.7992 71.4635 26.0114 71.7969 25.3295C72.134 24.6477 72.6037 24.1155 73.206 23.733C73.812 23.3504 74.5204 23.1591 75.331 23.1591C75.8234 23.1591 76.3007 23.2405 76.7628 23.4034C77.2249 23.5663 77.6397 23.822 78.0071 24.1705C78.3745 24.5189 78.6643 24.9716 78.8764 25.5284C79.0885 26.0814 79.1946 26.7538 79.1946 27.5455V28.1477H72.2571V26.875H77.5298C77.5298 26.428 77.4389 26.0322 77.2571 25.6875C77.0753 25.339 76.8196 25.0644 76.4901 24.8636C76.1643 24.6629 75.7817 24.5625 75.3423 24.5625C74.8651 24.5625 74.4484 24.6799 74.0923 24.9148C73.7401 25.1458 73.4673 25.4489 73.2741 25.8239C73.0848 26.1951 72.9901 26.5985 72.9901 27.0341V28.0284C72.9901 28.6117 73.0923 29.108 73.2969 29.517C73.5052 29.9261 73.795 30.2386 74.1662 30.4545C74.5374 30.6667 74.9711 30.7727 75.4673 30.7727C75.7893 30.7727 76.0829 30.7273 76.348 30.6364C76.6132 30.5417 76.8423 30.4015 77.0355 30.2159C77.2287 30.0303 77.3764 29.8011 77.4787 29.5284L79.0866 29.8182C78.9579 30.2917 78.7268 30.7064 78.3935 31.0625C78.0639 31.4148 77.6491 31.6894 77.1491 31.8864C76.6529 32.0795 76.0866 32.1761 75.4503 32.1761ZM82.7784 20.3636V32H81.0795V20.3636H82.7784ZM88.8253 32.1761C87.9654 32.1761 87.2249 31.9924 86.6037 31.625C85.9863 31.2538 85.509 30.733 85.1719 30.0625C84.8385 29.3883 84.6719 28.5985 84.6719 27.6932C84.6719 26.7992 84.8385 26.0114 85.1719 25.3295C85.509 24.6477 85.9787 24.1155 86.581 23.733C87.187 23.3504 87.8954 23.1591 88.706 23.1591C89.1984 23.1591 89.6757 23.2405 90.1378 23.4034C90.5999 23.5663 91.0147 23.822 91.3821 24.1705C91.7495 24.5189 92.0393 24.9716 92.2514 25.5284C92.4635 26.0814 92.5696 26.7538 92.5696 27.5455V28.1477H85.6321V26.875H90.9048C90.9048 26.428 90.8139 26.0322 90.6321 25.6875C90.4503 25.339 90.1946 25.0644 89.8651 24.8636C89.5393 24.6629 89.1567 24.5625 88.7173 24.5625C88.2401 24.5625 87.8234 24.6799 87.4673 24.9148C87.1151 25.1458 86.8423 25.4489 86.6491 25.8239C86.4598 26.1951 86.3651 26.5985 86.3651 27.0341V28.0284C86.3651 28.6117 86.4673 29.108 86.6719 29.517C86.8802 29.9261 87.17 30.2386 87.5412 30.4545C87.9124 30.6667 88.3461 30.7727 88.8423 30.7727C89.1643 30.7727 89.4579 30.7273 89.723 30.6364C89.9882 30.5417 90.2173 30.4015 90.4105 30.2159C90.6037 30.0303 90.7514 29.8011 90.8537 29.5284L92.4616 29.8182C92.3329 30.2917 92.1018 30.7064 91.7685 31.0625C91.4389 31.4148 91.0241 31.6894 90.5241 31.8864C90.0279 32.0795 89.4616 32.1761 88.8253 32.1761ZM98.5284 23.2727V24.6364H93.7614V23.2727H98.5284ZM95.0398 21.1818H96.7386V29.4375C96.7386 29.767 96.7879 30.0152 96.8864 30.1818C96.9848 30.3447 97.1117 30.4564 97.267 30.517C97.4261 30.5739 97.5985 30.6023 97.7841 30.6023C97.9205 30.6023 98.0398 30.5928 98.142 30.5739C98.2443 30.5549 98.3239 30.5398 98.3807 30.5284L98.6875 31.9318C98.589 31.9697 98.4489 32.0076 98.267 32.0455C98.0852 32.0871 97.858 32.1098 97.5852 32.1136C97.1383 32.1212 96.7216 32.0417 96.3352 31.875C95.9489 31.7083 95.6364 31.4508 95.3977 31.1023C95.1591 30.7538 95.0398 30.3163 95.0398 29.7898V21.1818ZM104.075 32.1761C103.215 32.1761 102.475 31.9924 101.854 31.625C101.236 31.2538 100.759 30.733 100.422 30.0625C100.089 29.3883 99.9219 28.5985 99.9219 27.6932C99.9219 26.7992 100.089 26.0114 100.422 25.3295C100.759 24.6477 101.229 24.1155 101.831 23.733C102.437 23.3504 103.145 23.1591 103.956 23.1591C104.448 23.1591 104.926 23.2405 105.388 23.4034C105.85 23.5663 106.265 23.822 106.632 24.1705C107 24.5189 107.289 24.9716 107.501 25.5284C107.714 26.0814 107.82 26.7538 107.82 27.5455V28.1477H100.882V26.875H106.155C106.155 26.428 106.064 26.0322 105.882 25.6875C105.7 25.339 105.445 25.0644 105.115 24.8636C104.789 24.6629 104.407 24.5625 103.967 24.5625C103.49 24.5625 103.073 24.6799 102.717 24.9148C102.365 25.1458 102.092 25.4489 101.899 25.8239C101.71 26.1951 101.615 26.5985 101.615 27.0341V28.0284C101.615 28.6117 101.717 29.108 101.922 29.517C102.13 29.9261 102.42 30.2386 102.791 30.4545C103.162 30.6667 103.596 30.7727 104.092 30.7727C104.414 30.7727 104.708 30.7273 104.973 30.6364C105.238 30.5417 105.467 30.4015 105.661 30.2159C105.854 30.0303 106.001 29.8011 106.104 29.5284L107.712 29.8182C107.583 30.2917 107.352 30.7064 107.018 31.0625C106.689 31.4148 106.274 31.6894 105.774 31.8864C105.278 32.0795 104.712 32.1761 104.075 32.1761Z" fill="white"/>
</svg>
