<svg width="50" height="26" viewBox="0 0 50 26" fill="none" xmlns="http://www.w3.org/2000/svg">
<line x1="2" y1="23" x2="11" y2="23" stroke="#2BCBBA" stroke-width="2" stroke-linecap="round"/>
<path d="M5.04545 19H1.27841V7.36364H5.16477C6.30492 7.36364 7.28409 7.59659 8.10227 8.0625C8.92045 8.52462 9.54735 9.18939 9.98295 10.0568C10.4223 10.9205 10.642 11.9564 10.642 13.1648C10.642 14.3769 10.4205 15.4186 9.97727 16.2898C9.53788 17.161 8.90152 17.8314 8.06818 18.3011C7.23485 18.767 6.22727 19 5.04545 19ZM3.03409 17.4659H4.94886C5.83523 17.4659 6.57197 17.2992 7.15909 16.9659C7.74621 16.6288 8.18561 16.142 8.47727 15.5057C8.76894 14.8655 8.91477 14.0852 8.91477 13.1648C8.91477 12.2519 8.76894 11.4773 8.47727 10.8409C8.18939 10.2045 7.75947 9.72159 7.1875 9.39205C6.61553 9.0625 5.9053 8.89773 5.05682 8.89773H3.03409V17.4659ZM16.4503 19.1761C15.5904 19.1761 14.8499 18.9924 14.2287 18.625C13.6113 18.2538 13.134 17.733 12.7969 17.0625C12.4635 16.3883 12.2969 15.5985 12.2969 14.6932C12.2969 13.7992 12.4635 13.0114 12.7969 12.3295C13.134 11.6477 13.6037 11.1155 14.206 10.733C14.812 10.3504 15.5204 10.1591 16.331 10.1591C16.8234 10.1591 17.3007 10.2405 17.7628 10.4034C18.2249 10.5663 18.6397 10.822 19.0071 11.1705C19.3745 11.5189 19.6643 11.9716 19.8764 12.5284C20.0885 13.0814 20.1946 13.7538 20.1946 14.5455V15.1477H13.2571V13.875H18.5298C18.5298 13.428 18.4389 13.0322 18.2571 12.6875C18.0753 12.339 17.8196 12.0644 17.4901 11.8636C17.1643 11.6629 16.7817 11.5625 16.3423 11.5625C15.8651 11.5625 15.4484 11.6799 15.0923 11.9148C14.7401 12.1458 14.4673 12.4489 14.2741 12.8239C14.0848 13.1951 13.9901 13.5985 13.9901 14.0341V15.0284C13.9901 15.6117 14.0923 16.108 14.2969 16.517C14.5052 16.9261 14.795 17.2386 15.1662 17.4545C15.5374 17.6667 15.9711 17.7727 16.4673 17.7727C16.7893 17.7727 17.0829 17.7273 17.348 17.6364C17.6132 17.5417 17.8423 17.4015 18.0355 17.2159C18.2287 17.0303 18.3764 16.8011 18.4787 16.5284L20.0866 16.8182C19.9579 17.2917 19.7268 17.7064 19.3935 18.0625C19.0639 18.4148 18.6491 18.6894 18.1491 18.8864C17.6529 19.0795 17.0866 19.1761 16.4503 19.1761ZM23.7784 7.36364V19H22.0795V7.36364H23.7784ZM29.8253 19.1761C28.9654 19.1761 28.2249 18.9924 27.6037 18.625C26.9863 18.2538 26.509 17.733 26.1719 17.0625C25.8385 16.3883 25.6719 15.5985 25.6719 14.6932C25.6719 13.7992 25.8385 13.0114 26.1719 12.3295C26.509 11.6477 26.9787 11.1155 27.581 10.733C28.187 10.3504 28.8954 10.1591 29.706 10.1591C30.1984 10.1591 30.6757 10.2405 31.1378 10.4034C31.5999 10.5663 32.0147 10.822 32.3821 11.1705C32.7495 11.5189 33.0393 11.9716 33.2514 12.5284C33.4635 13.0814 33.5696 13.7538 33.5696 14.5455V15.1477H26.6321V13.875H31.9048C31.9048 13.428 31.8139 13.0322 31.6321 12.6875C31.4503 12.339 31.1946 12.0644 30.8651 11.8636C30.5393 11.6629 30.1567 11.5625 29.7173 11.5625C29.2401 11.5625 28.8234 11.6799 28.4673 11.9148C28.1151 12.1458 27.8423 12.4489 27.6491 12.8239C27.4598 13.1951 27.3651 13.5985 27.3651 14.0341V15.0284C27.3651 15.6117 27.4673 16.108 27.6719 16.517C27.8802 16.9261 28.17 17.2386 28.5412 17.4545C28.9124 17.6667 29.3461 17.7727 29.8423 17.7727C30.1643 17.7727 30.4579 17.7273 30.723 17.6364C30.9882 17.5417 31.2173 17.4015 31.4105 17.2159C31.6037 17.0303 31.7514 16.8011 31.8537 16.5284L33.4616 16.8182C33.3329 17.2917 33.1018 17.7064 32.7685 18.0625C32.4389 18.4148 32.0241 18.6894 31.5241 18.8864C31.0279 19.0795 30.4616 19.1761 29.8253 19.1761ZM39.5284 10.2727V11.6364H34.7614V10.2727H39.5284ZM36.0398 8.18182H37.7386V16.4375C37.7386 16.767 37.7879 17.0152 37.8864 17.1818C37.9848 17.3447 38.1117 17.4564 38.267 17.517C38.4261 17.5739 38.5985 17.6023 38.7841 17.6023C38.9205 17.6023 39.0398 17.5928 39.142 17.5739C39.2443 17.5549 39.3239 17.5398 39.3807 17.5284L39.6875 18.9318C39.589 18.9697 39.4489 19.0076 39.267 19.0455C39.0852 19.0871 38.858 19.1098 38.5852 19.1136C38.1383 19.1212 37.7216 19.0417 37.3352 18.875C36.9489 18.7083 36.6364 18.4508 36.3977 18.1023C36.1591 17.7538 36.0398 17.3163 36.0398 16.7898V8.18182ZM45.0753 19.1761C44.2154 19.1761 43.4749 18.9924 42.8537 18.625C42.2363 18.2538 41.759 17.733 41.4219 17.0625C41.0885 16.3883 40.9219 15.5985 40.9219 14.6932C40.9219 13.7992 41.0885 13.0114 41.4219 12.3295C41.759 11.6477 42.2287 11.1155 42.831 10.733C43.437 10.3504 44.1454 10.1591 44.956 10.1591C45.4484 10.1591 45.9257 10.2405 46.3878 10.4034C46.8499 10.5663 47.2647 10.822 47.6321 11.1705C47.9995 11.5189 48.2893 11.9716 48.5014 12.5284C48.7135 13.0814 48.8196 13.7538 48.8196 14.5455V15.1477H41.8821V13.875H47.1548C47.1548 13.428 47.0639 13.0322 46.8821 12.6875C46.7003 12.339 46.4446 12.0644 46.1151 11.8636C45.7893 11.6629 45.4067 11.5625 44.9673 11.5625C44.4901 11.5625 44.0734 11.6799 43.7173 11.9148C43.3651 12.1458 43.0923 12.4489 42.8991 12.8239C42.7098 13.1951 42.6151 13.5985 42.6151 14.0341V15.0284C42.6151 15.6117 42.7173 16.108 42.9219 16.517C43.1302 16.9261 43.42 17.2386 43.7912 17.4545C44.1624 17.6667 44.5961 17.7727 45.0923 17.7727C45.4143 17.7727 45.7079 17.7273 45.973 17.6364C46.2382 17.5417 46.4673 17.4015 46.6605 17.2159C46.8537 17.0303 47.0014 16.8011 47.1037 16.5284L48.7116 16.8182C48.5829 17.2917 48.3518 17.7064 48.0185 18.0625C47.6889 18.4148 47.2741 18.6894 46.7741 18.8864C46.2779 19.0795 45.7116 19.1761 45.0753 19.1761Z" fill="white"/>
</svg>
