<svg width="32" height="32" viewBox="0 0 32 32" fill="none" xmlns="http://www.w3.org/2000/svg">
<path d="M25.5 7H6.625C5.66359 7 4.74156 7.38192 4.06174 8.06174C3.38192 8.74156 3 9.66359 3 10.625V20.5C3 21.4283 3.36875 22.3185 4.02513 22.9749C4.6815 23.6313 5.57174 24 6.5 24H7V26.48C7 27.1483 7.2655 27.7893 7.73809 28.2619C8.21068 28.7345 8.85165 29 9.52 29H22.48C23.1483 29 23.7893 28.7345 24.2619 28.2619C24.7345 27.7893 25 27.1483 25 26.48V24H25.5C26.4283 24 27.3185 23.6313 27.9749 22.9749C28.6313 22.3185 29 21.4283 29 20.5V10.5C29 9.57174 28.6313 8.6815 27.9749 8.02513C27.3185 7.36875 26.4283 7 25.5 7V7ZM23 26.48C22.9995 26.6178 22.9446 26.7497 22.8471 26.8471C22.7497 26.9446 22.6178 26.9995 22.48 27H9.52C9.38224 26.9995 9.25026 26.9446 9.15285 26.8471C9.05544 26.7497 9.00049 26.6178 9 26.48V16.52C9.00049 16.3822 9.05544 16.2503 9.15285 16.1529C9.25026 16.0554 9.38224 16.0005 9.52 16H22.48C22.6178 16.0005 22.7497 16.0554 22.8471 16.1529C22.9446 16.2503 22.9995 16.3822 23 16.52V26.48ZM24.625 12.995C24.3191 13.0196 24.0129 12.9497 23.748 12.7949C23.483 12.64 23.2719 12.4076 23.1431 12.1289C23.0144 11.8503 22.9742 11.5389 23.0281 11.2367C23.0819 10.9346 23.2271 10.6562 23.4442 10.4392C23.6612 10.2221 23.9396 10.0769 24.2417 10.0231C24.5439 9.96924 24.8553 10.0094 25.1339 10.1381C25.4126 10.2669 25.645 10.478 25.7999 10.743C25.9547 11.0079 26.0246 11.3141 26 11.62C25.9715 11.9752 25.8174 12.3085 25.5655 12.5605C25.3135 12.8124 24.9802 12.9665 24.625 12.995V12.995ZM21.5 3H10.5C9.65875 3.00125 8.84601 3.30498 8.21012 3.85573C7.57422 4.40649 7.15758 5.16755 7.03625 6H24.9638C24.8424 5.16755 24.4258 4.40649 23.7899 3.85573C23.154 3.30498 22.3412 3.00125 21.5 3V3Z" fill="#2BCBBA"/>
</svg>
