<?xml version="1.0" encoding="UTF-8"?><svg id="Layer_1" xmlns="http://www.w3.org/2000/svg" viewBox="0 0 644.49 424.55"><defs><style>.cls-1{fill:#2bcbba;}</style></defs><path class="cls-1" d="m605.62,98.72c1.52-4.85,2.67-8.75,3.45-11.44.39-1.35.68-2.39.88-3.1.1-.36.17-.63.22-.81.03-.09.04-.16.06-.21,0-.02.01-.04.01-.06,0,0,0-.01,0-.01,0,0,0,0,0,0,0,0,0,0,0,0,0,0,0,0,0,0t-3.86-1.03q-3.86-1.03-3.86-1.03h0s0,0,0,0c0,0,0,0,0,0,0,0,0,0,0,.01,0,0,0,.03-.01.05-.01.04-.03.11-.05.19-.05.17-.12.43-.21.77-.19.69-.47,1.7-.85,3.02-.76,2.64-1.89,6.47-3.39,11.26l7.63,2.39Zm-22.74,61.3c4.62-10.64,8.68-20.94,12.17-30.36l-7.5-2.78c-3.44,9.3-7.45,19.47-12,29.95l7.34,3.18Zm-30.49,58.03c5.92-9.09,11.41-18.71,16.46-28.44l-7.1-3.69c-4.96,9.54-10.32,18.92-16.07,27.76l6.71,4.36Zm-45.22,48.29c9.02-5.67,17.45-13.21,25.27-21.93l-5.95-5.34c-7.46,8.32-15.34,15.32-23.57,20.5l4.26,6.77Zm-49.53,9.61c5.88,1.33,11.64,1.77,17.27,1.42l-.5-7.98c-4.87.31-9.86-.07-15.01-1.24l-1.77,7.8Zm-15.22-5.75c4.52,2.52,9.57,4.47,15.22,5.75l1.77-7.8c-4.94-1.12-9.26-2.8-13.09-4.93l-3.9,6.99Zm-34.69-51.41c3.32,10.03,7.13,19.89,12.27,28.58l6.88-4.08c-4.7-7.94-8.29-17.17-11.56-27.02l-7.59,2.52Zm-20.69-55.9c4.72,7.9,8.31,17.12,11.59,26.99l7.59-2.52c-3.33-10.05-7.15-19.92-12.31-28.57l-6.87,4.1Zm-32.73-24.43c4.97,1.04,9.31,2.65,13.16,4.72l3.8-7.04c-4.55-2.45-9.63-4.32-15.32-5.51l-1.63,7.83Zm-15.42-.31c4.5-.92,9.59-.91,15.42.31l1.63-7.83c-6.74-1.41-12.95-1.48-18.66-.31l1.61,7.84Zm-36.83,48.92c3.65-11.79,7.88-22.17,13.08-30.36l-6.75-4.29c-5.73,9.03-10.22,20.16-13.97,32.28l7.64,2.37Zm-15.31,66.36c2.32-11.14,4.54-22.41,6.95-33.49l-7.82-1.7c-2.42,11.11-4.67,22.56-6.97,33.56l7.83,1.63Zm-20.74,66.37c5.28-9.01,9.37-20.35,12.84-32.76l-7.7-2.15c-3.4,12.16-7.27,22.74-12.03,30.87l6.9,4.05Zm-48.22,17.46c6.62,2.63,12.74,3.79,18.42,3.52l-.38-7.99c-4.29.2-9.27-.66-15.08-2.97l-2.95,7.43Zm-17.48-11.19c4.73,4.59,10.47,8.4,17.48,11.19l2.95-7.43c-6.05-2.4-10.89-5.64-14.87-9.49l-5.57,5.74Zm-28.14-73.02c1.71,5.98,3.13,12.19,4.57,18.53,1.44,6.3,2.91,12.73,4.68,18.96l7.69-2.19c-1.7-5.99-3.13-12.21-4.57-18.55-1.44-6.3-2.91-12.73-4.68-18.95l-7.69,2.19Zm-31.76-41.28c6.08,2.36,10.94,5.55,14.93,9.38l5.54-5.78c-4.76-4.56-10.52-8.32-17.57-11.06l-2.89,7.46Zm-14.8-3.02c4.68.06,9.6,1,14.8,3.02l2.89-7.46c-6.02-2.33-11.89-3.49-17.6-3.56l-.1,8Zm-48.51,34.91c6.43-9.89,13.35-18.16,20.75-24.16l-5.04-6.21c-8.25,6.69-15.71,15.68-22.42,26.02l6.71,4.36Zm-27.63,59.17c3.69-10.44,7.75-20.75,12.19-30.5l-7.28-3.32c-4.56,10.01-8.71,20.54-12.46,31.16l7.54,2.66Zm-18.29,63.39c2.33-9.9,5.1-20.74,8.31-31.97l-7.69-2.2c-3.25,11.36-6.05,22.33-8.41,32.33l7.79,1.84Zm-13.69,47.81q3.95.61,3.95.61s0,0,0,0c0,0,0,0,0,0,0,0,0,0,0,0,0,0,0,0,0-.01,0-.01,0-.03,0-.05,0-.04.02-.11.03-.2.03-.18.07-.46.13-.82.12-.72.29-1.8.53-3.19.47-2.78,1.19-6.83,2.15-11.88l-7.86-1.5c-.97,5.11-1.7,9.21-2.18,12.04-.24,1.41-.42,2.51-.54,3.25-.06.37-.11.66-.14.85-.02.1-.03.17-.03.22,0,.02,0,.04,0,.06,0,0,0,.01,0,.02,0,0,0,0,0,0,0,0,0,0,0,0,0,0,0,0,0,0t3.95.61ZM597.99,96.33c-.66,2.11.51,4.35,2.62,5.01,2.11.66,4.35-.51,5.01-2.62l-7.63-2.39Zm-2.94,33.34c.77-2.07-.29-4.37-2.36-5.14s-4.37.29-5.14,2.36l7.5,2.78Zm-19.5,27.17c-.88,2.03.05,4.38,2.08,5.26,2.03.88,4.38-.05,5.26-2.08l-7.34-3.18Zm-6.69,32.77c1.02-1.96.25-4.38-1.71-5.39-1.96-1.02-4.38-.25-5.39,1.71l7.1,3.69Zm-23.17,24.07c-1.2,1.85-.68,4.33,1.17,5.53,1.85,1.2,4.33.68,5.53-1.17l-6.71-4.36Zm-13.24,30.73c1.48-1.64,1.34-4.17-.31-5.65s-4.17-1.34-5.65.31l5.95,5.34Zm-29.53,15.15c-1.87,1.18-2.43,3.64-1.26,5.52,1.18,1.87,3.64,2.43,5.52,1.26l-4.26-6.77Zm-28,17.8c2.2-.14,3.88-2.04,3.74-4.24-.14-2.2-2.04-3.88-4.24-3.74l.5,7.98Zm-28.6-14.15c-1.93-1.08-4.37-.39-5.44,1.54s-.39,4.37,1.54,5.44l3.9-6.99Zm-26.33-15.84c1.13,1.9,3.58,2.53,5.48,1.4,1.9-1.13,2.53-3.58,1.4-5.48l-6.88,4.08Zm-4.67-31.1c-.7-2.1-2.96-3.23-5.06-2.54-2.1.7-3.23,2.96-2.54,5.06l7.59-2.52Zm-16.7-26.39c.7,2.1,2.96,3.23,5.06,2.54,2.1-.7,3.23-2.96,2.54-5.06l-7.59,2.52Zm-4.72-31.09c-1.13-1.9-3.59-2.52-5.48-1.39s-2.52,3.59-1.39,5.48l6.87-4.1Zm-26.44-15.61c1.94,1.05,4.37.32,5.42-1.62,1.05-1.94.32-4.37-1.62-5.42l-3.8,7.04Zm-30.18-12.86c-2.16.44-3.56,2.56-3.12,4.72.44,2.16,2.56,3.56,4.72,3.12l-1.61-7.84Zm-22.15,26.4c1.18-1.87.63-4.34-1.23-5.52-1.87-1.18-4.34-.63-5.52,1.23l6.75,4.29Zm-20.72,27.99c-.65,2.11.53,4.35,2.64,5,2.11.65,4.35-.53,5-2.64l-7.64-2.37Zm-.72,35.23c.47-2.16-.9-4.29-3.06-4.76-2.16-.47-4.29.9-4.76,3.06l7.82,1.7Zm-14.78,31.86c-.45,2.16.94,4.28,3.1,4.73,2.16.45,4.28-.94,4.73-3.1l-7.83-1.63Zm-.07,35.24c.59-2.13-.65-4.33-2.78-4.93s-4.33.65-4.93,2.78l7.7,2.15Zm-19.74,28.72c-1.12,1.91-.48,4.36,1.43,5.47,1.91,1.12,4.36.48,5.47-1.43l-6.9-4.05Zm-22.9,25.03c2.21-.11,3.91-1.98,3.8-4.19-.11-2.21-1.98-3.91-4.19-3.8l.38,7.99Zm-30.33-20.45c-1.59-1.54-4.12-1.5-5.66.09-1.54,1.59-1.5,4.12.09,5.66l5.57-5.74Zm-24.46-29.78c.6,2.12,2.82,3.36,4.94,2.75s3.36-2.82,2.75-4.94l-7.69,2.19Zm-1.56-39.69c-.61-2.12-2.82-3.36-4.94-2.75-2.12.61-3.36,2.82-2.75,4.94l7.69-2.19Zm-24.53-29.71c1.6,1.53,4.13,1.47,5.66-.12,1.53-1.6,1.47-4.13-.12-5.66l-5.54,5.78Zm-29.63-20.39c-2.21-.03-4.02,1.74-4.05,3.95-.03,2.21,1.74,4.02,3.95,4.05l.1-8Zm-27.85,18.75c1.72-1.39,1.98-3.91.59-5.63s-3.91-1.98-5.63-.59l5.04,6.21Zm-27.46,19.8c-1.2,1.85-.68,4.33,1.18,5.53,1.85,1.2,4.33.68,5.53-1.18l-6.71-4.36Zm-8.73,33.02c.92-2.01.03-4.38-1.98-5.3-2.01-.92-4.38-.03-5.3,1.98l7.28,3.32Zm-19.74,27.84c-.74,2.08.36,4.37,2.44,5.1s4.37-.36,5.1-2.44l-7.54-2.66Zm-2.43,34.09c.61-2.12-.62-4.34-2.75-4.95-2.12-.61-4.34.62-4.95,2.75l7.69,2.2Zm-16.1,30.13c-.51,2.15.83,4.3,2.98,4.81,2.15.51,4.3-.83,4.81-2.98l-7.79-1.84Zm.9,34.11c.41-2.17-1.01-4.26-3.18-4.68-2.17-.41-4.26,1.01-4.68,3.18l7.86,1.5Zm434.24-126.46l-.88,3.9.88-3.9Zm-103.39-137.5l.82-3.92-.82,3.92Zm-135.86,199l1.48-3.72-1.48,3.72Zm-77.42-125.5l-1.45,3.73,1.45-3.73Z"/><ellipse class="cls-1" cx="15.98" cy="408.55" rx="15.98" ry="16"/><path class="cls-1" d="m610.05,83.72l5.88-21.2-7.71-2.14-5.88,21.2,7.71,2.14Zm5.88-21.2c.59-2.13-.66-4.33-2.79-4.93s-4.33.66-4.92,2.78l7.71,2.14Zm-13.58,19.06c-.59,2.13.66,4.33,2.79,4.93s4.33-.66,4.92-2.78l-7.71-2.14Z"/><path class="cls-1" d="m636.37,38.59l-20.65-36.56-6.96,3.94,20.65,36.56,6.96-3.94Zm-20.65-36.56c-1.09-1.92-3.53-2.6-5.45-1.51-1.92,1.09-2.6,3.53-1.51,5.45l6.96-3.94Zm13.69,40.5c1.09,1.92,3.53,2.6,5.45,1.51,1.92-1.09,2.6-3.53,1.51-5.45l-6.96,3.94Z"/><path class="cls-1" d="m638.52,8.58l-36.52,20.67,3.94,6.97,36.52-20.67-3.94-6.97Zm-36.52,20.67c-1.92,1.09-2.6,3.53-1.51,5.45s3.53,2.6,5.45,1.51l-3.94-6.97Zm40.45-13.71c1.92-1.09,2.6-3.53,1.51-5.45s-3.53-2.6-5.45-1.51l3.94,6.97Z"/></svg>