<svg width="41" height="19" viewBox="0 0 41 19" fill="none" xmlns="http://www.w3.org/2000/svg">
<path d="M2 18H16" stroke="#2BCBBA" stroke-width="2" stroke-linecap="round"/>
<path d="M1.07599 14V3.09091H3.0522V12.3434H7.85689V14H1.07599ZM13.0558 14.1598C12.2567 14.1598 11.5643 13.984 10.9783 13.6325C10.3924 13.2809 9.93786 12.7891 9.6147 12.157C9.2951 11.5249 9.1353 10.7862 9.1353 9.94105C9.1353 9.09588 9.2951 8.35547 9.6147 7.71982C9.93786 7.08416 10.3924 6.59055 10.9783 6.23899C11.5643 5.88743 12.2567 5.71165 13.0558 5.71165C13.8548 5.71165 14.5472 5.88743 15.1332 6.23899C15.7191 6.59055 16.1719 7.08416 16.4915 7.71982C16.8146 8.35547 16.9762 9.09588 16.9762 9.94105C16.9762 10.7862 16.8146 11.5249 16.4915 12.157C16.1719 12.7891 15.7191 13.2809 15.1332 13.6325C14.5472 13.984 13.8548 14.1598 13.0558 14.1598ZM13.0664 12.6151C13.4996 12.6151 13.8619 12.4961 14.1531 12.2582C14.4442 12.0167 14.6609 11.6935 14.8029 11.2887C14.9485 10.8839 15.0213 10.4329 15.0213 9.93572C15.0213 9.43501 14.9485 8.98224 14.8029 8.57741C14.6609 8.16903 14.4442 7.84411 14.1531 7.60263C13.8619 7.36115 13.4996 7.24041 13.0664 7.24041C12.6225 7.24041 12.2532 7.36115 11.9585 7.60263C11.6673 7.84411 11.4489 8.16903 11.3033 8.57741C11.1612 8.98224 11.0902 9.43501 11.0902 9.93572C11.0902 10.4329 11.1612 10.8839 11.3033 11.2887C11.4489 11.6935 11.6673 12.0167 11.9585 12.2582C12.2532 12.4961 12.6225 12.6151 13.0664 12.6151ZM22.1711 17.2386C21.4786 17.2386 20.8838 17.1445 20.3866 16.9563C19.8895 16.7717 19.49 16.5231 19.1881 16.2106C18.8863 15.8981 18.6768 15.5518 18.5596 15.1719L20.2961 14.7511C20.3742 14.9109 20.4878 15.0689 20.637 15.2251C20.7861 15.3849 20.9868 15.5163 21.2389 15.6193C21.4946 15.7259 21.816 15.7791 22.203 15.7791C22.7499 15.7791 23.2027 15.646 23.5613 15.3796C23.92 15.1168 24.0993 14.6836 24.0993 14.0799V12.5298H24.0035C23.904 12.7287 23.7584 12.9329 23.5667 13.1424C23.3785 13.3519 23.1281 13.5277 22.8156 13.6697C22.5067 13.8118 22.1178 13.8828 21.6491 13.8828C21.0205 13.8828 20.4506 13.7354 19.9392 13.4407C19.4314 13.1424 19.0265 12.6985 18.7247 12.109C18.4264 11.516 18.2773 10.7738 18.2773 9.88246C18.2773 8.98402 18.4264 8.22585 18.7247 7.60795C19.0265 6.98651 19.4331 6.51598 19.9445 6.19638C20.4559 5.87322 21.0258 5.71165 21.6544 5.71165C22.1338 5.71165 22.528 5.79332 22.8369 5.95668C23.1494 6.11648 23.398 6.31001 23.5827 6.53729C23.7673 6.76101 23.9076 6.9723 24.0035 7.17116H24.11V5.81818H26.0116V14.1332C26.0116 14.8327 25.8447 15.4116 25.5109 15.8697C25.1771 16.3278 24.7208 16.6705 24.142 16.8977C23.5631 17.125 22.9062 17.2386 22.1711 17.2386ZM22.1871 12.37C22.5954 12.37 22.9434 12.2706 23.2311 12.0717C23.5187 11.8729 23.7371 11.587 23.8863 11.2141C24.0354 10.8413 24.11 10.3938 24.11 9.8718C24.11 9.35689 24.0354 8.90589 23.8863 8.51882C23.7407 8.13175 23.5241 7.83168 23.2364 7.61861C22.9523 7.40199 22.6025 7.29368 22.1871 7.29368C21.7574 7.29368 21.3987 7.40554 21.1111 7.62926C20.8234 7.85298 20.6068 8.16016 20.4612 8.55078C20.3156 8.93786 20.2428 9.3782 20.2428 9.8718C20.2428 10.3725 20.3156 10.8111 20.4612 11.1875C20.6104 11.5604 20.8287 11.8516 21.1164 12.0611C21.4076 12.267 21.7645 12.37 22.1871 12.37ZM27.9878 14V5.81818H29.9161V14H27.9878ZM28.9573 4.65696C28.6519 4.65696 28.3891 4.55575 28.1689 4.35334C27.9488 4.14737 27.8387 3.90057 27.8387 3.61293C27.8387 3.32173 27.9488 3.07493 28.1689 2.87251C28.3891 2.66655 28.6519 2.56357 28.9573 2.56357C29.2662 2.56357 29.529 2.66655 29.7456 2.87251C29.9658 3.07493 30.0759 3.32173 30.0759 3.61293C30.0759 3.90057 29.9658 4.14737 29.7456 4.35334C29.529 4.55575 29.2662 4.65696 28.9573 4.65696ZM33.8272 9.20597V14H31.899V5.81818H33.742V7.20845H33.8379C34.0261 6.75035 34.3262 6.38636 34.7381 6.11648C35.1536 5.84659 35.6667 5.71165 36.2775 5.71165C36.8422 5.71165 37.334 5.83239 37.753 6.07386C38.1756 6.31534 38.5023 6.66513 38.7331 7.12322C38.9675 7.58132 39.0829 8.13707 39.0794 8.79048V14H37.1511V9.08878C37.1511 8.5419 37.0091 8.11399 36.725 7.80504C36.4444 7.49609 36.0556 7.34162 35.5584 7.34162C35.2211 7.34162 34.921 7.41619 34.6582 7.56534C34.399 7.71094 34.1948 7.92223 34.0456 8.19922C33.9 8.47621 33.8272 8.81179 33.8272 9.20597Z" fill="black"/>
</svg>
