<svg width="168" height="52" viewBox="0 0 168 52" fill="none" xmlns="http://www.w3.org/2000/svg">
<rect width="168" height="52" rx="4" fill="black"/>
<line x1="59" y1="36" x2="68" y2="36" stroke="#2BCBBA" stroke-width="2" stroke-linecap="round"/>
<path d="M58.2784 32V20.3636H60.0341V30.4886H65.3068V32H58.2784ZM70.8494 32.1761C70.0313 32.1761 69.3172 31.9886 68.7074 31.6136C68.0975 31.2386 67.6241 30.714 67.2869 30.0398C66.9498 29.3655 66.7812 28.5777 66.7812 27.6761C66.7812 26.7708 66.9498 25.9792 67.2869 25.3011C67.6241 24.6231 68.0975 24.0966 68.7074 23.7216C69.3172 23.3466 70.0313 23.1591 70.8494 23.1591C71.6676 23.1591 72.3816 23.3466 72.9915 23.7216C73.6013 24.0966 74.0748 24.6231 74.4119 25.3011C74.7491 25.9792 74.9176 26.7708 74.9176 27.6761C74.9176 28.5777 74.7491 29.3655 74.4119 30.0398C74.0748 30.714 73.6013 31.2386 72.9915 31.6136C72.3816 31.9886 71.6676 32.1761 70.8494 32.1761ZM70.8551 30.75C71.3854 30.75 71.8248 30.6098 72.1733 30.3295C72.5218 30.0492 72.7794 29.6761 72.946 29.2102C73.1165 28.7443 73.2017 28.2311 73.2017 27.6705C73.2017 27.1136 73.1165 26.6023 72.946 26.1364C72.7794 25.6667 72.5218 25.2898 72.1733 25.0057C71.8248 24.7216 71.3854 24.5795 70.8551 24.5795C70.321 24.5795 69.8778 24.7216 69.5256 25.0057C69.1771 25.2898 68.9176 25.6667 68.7472 26.1364C68.5805 26.6023 68.4972 27.1136 68.4972 27.6705C68.4972 28.2311 68.5805 28.7443 68.7472 29.2102C68.9176 29.6761 69.1771 30.0492 69.5256 30.3295C69.8778 30.6098 70.321 30.75 70.8551 30.75ZM80.473 35.4545C79.7798 35.4545 79.1832 35.3636 78.6832 35.1818C78.187 35 77.7817 34.7595 77.4673 34.4602C77.1529 34.161 76.9181 33.8333 76.7628 33.4773L78.223 32.875C78.3253 33.0417 78.4616 33.2178 78.6321 33.4034C78.8063 33.5928 79.0412 33.7538 79.3366 33.8864C79.6359 34.0189 80.0204 34.0852 80.4901 34.0852C81.134 34.0852 81.6662 33.928 82.0866 33.6136C82.5071 33.303 82.7173 32.8068 82.7173 32.125V30.4091H82.6094C82.5071 30.5947 82.3594 30.8011 82.1662 31.0284C81.9768 31.2557 81.7154 31.4527 81.3821 31.6193C81.0488 31.786 80.6151 31.8693 80.081 31.8693C79.3916 31.8693 78.7704 31.7083 78.2173 31.3864C77.6681 31.0606 77.2325 30.5814 76.9105 29.9489C76.5923 29.3125 76.4332 28.5303 76.4332 27.6023C76.4332 26.6742 76.5904 25.8788 76.9048 25.2159C77.223 24.553 77.6586 24.0455 78.2116 23.6932C78.7647 23.3371 79.3916 23.1591 80.0923 23.1591C80.634 23.1591 81.0715 23.25 81.4048 23.4318C81.7382 23.6098 81.9976 23.8182 82.1832 24.0568C82.3726 24.2955 82.5185 24.5057 82.6207 24.6875H82.7457V23.2727H84.4105V32.1932C84.4105 32.9432 84.2363 33.5587 83.8878 34.0398C83.5393 34.5208 83.0677 34.8769 82.473 35.108C81.8821 35.339 81.2154 35.4545 80.473 35.4545ZM80.456 30.4602C80.9446 30.4602 81.3575 30.3466 81.6946 30.1193C82.0355 29.8883 82.2931 29.5587 82.4673 29.1307C82.6454 28.6989 82.7344 28.1818 82.7344 27.5795C82.7344 26.9924 82.6473 26.4754 82.473 26.0284C82.2988 25.5814 82.0431 25.233 81.706 24.983C81.3688 24.7292 80.9522 24.6023 80.456 24.6023C79.9446 24.6023 79.5185 24.7348 79.1776 25C78.8366 25.2614 78.5791 25.6174 78.4048 26.0682C78.2344 26.5189 78.1491 27.0227 78.1491 27.5795C78.1491 28.1515 78.2363 28.6534 78.4105 29.0852C78.5848 29.517 78.8423 29.8542 79.1832 30.0966C79.5279 30.339 79.9522 30.4602 80.456 30.4602ZM90.3651 32.1761C89.5469 32.1761 88.8329 31.9886 88.223 31.6136C87.6132 31.2386 87.1397 30.714 86.8026 30.0398C86.4654 29.3655 86.2969 28.5777 86.2969 27.6761C86.2969 26.7708 86.4654 25.9792 86.8026 25.3011C87.1397 24.6231 87.6132 24.0966 88.223 23.7216C88.8329 23.3466 89.5469 23.1591 90.3651 23.1591C91.1832 23.1591 91.8973 23.3466 92.5071 23.7216C93.117 24.0966 93.5904 24.6231 93.9276 25.3011C94.2647 25.9792 94.4332 26.7708 94.4332 27.6761C94.4332 28.5777 94.2647 29.3655 93.9276 30.0398C93.5904 30.714 93.117 31.2386 92.5071 31.6136C91.8973 31.9886 91.1832 32.1761 90.3651 32.1761ZM90.3707 30.75C90.901 30.75 91.3404 30.6098 91.6889 30.3295C92.0374 30.0492 92.295 29.6761 92.4616 29.2102C92.6321 28.7443 92.7173 28.2311 92.7173 27.6705C92.7173 27.1136 92.6321 26.6023 92.4616 26.1364C92.295 25.6667 92.0374 25.2898 91.6889 25.0057C91.3404 24.7216 90.901 24.5795 90.3707 24.5795C89.8366 24.5795 89.3935 24.7216 89.0412 25.0057C88.6927 25.2898 88.4332 25.6667 88.2628 26.1364C88.0961 26.6023 88.0128 27.1136 88.0128 27.6705C88.0128 28.2311 88.0961 28.7443 88.2628 29.2102C88.4332 29.6761 88.6927 30.0492 89.0412 30.3295C89.3935 30.6098 89.8366 30.75 90.3707 30.75ZM101.858 28.3807V23.2727H103.562V32H101.892V30.4886H101.801C101.6 30.9545 101.278 31.3428 100.835 31.6534C100.396 31.9602 99.8485 32.1136 99.1932 32.1136C98.6326 32.1136 98.1364 31.9905 97.7045 31.7443C97.2765 31.4943 96.9394 31.125 96.6932 30.6364C96.4508 30.1477 96.3295 29.5436 96.3295 28.8239V23.2727H98.0284V28.6193C98.0284 29.214 98.1932 29.6875 98.5227 30.0398C98.8523 30.392 99.2803 30.5682 99.8068 30.5682C100.125 30.5682 100.441 30.4886 100.756 30.3295C101.074 30.1705 101.337 29.9299 101.545 29.608C101.758 29.286 101.862 28.8769 101.858 28.3807ZM109.919 23.2727V24.6364H105.152V23.2727H109.919ZM106.43 21.1818H108.129V29.4375C108.129 29.767 108.179 30.0152 108.277 30.1818C108.375 30.3447 108.502 30.4564 108.658 30.517C108.817 30.5739 108.989 30.6023 109.175 30.6023C109.311 30.6023 109.43 30.5928 109.533 30.5739C109.635 30.5549 109.714 30.5398 109.771 30.5284L110.078 31.9318C109.98 31.9697 109.839 32.0076 109.658 32.0455C109.476 32.0871 109.249 32.1098 108.976 32.1136C108.529 32.1212 108.112 32.0417 107.726 31.875C107.339 31.7083 107.027 31.4508 106.788 31.1023C106.55 30.7538 106.43 30.3163 106.43 29.7898V21.1818Z" fill="white"/>
</svg>
