<svg width="54" height="26" viewBox="0 0 54 26" fill="none" xmlns="http://www.w3.org/2000/svg">
<line x1="2" y1="23" x2="11" y2="23" stroke="#2BCBBA" stroke-width="2" stroke-linecap="round"/>
<path d="M1.27841 19V7.36364H3.03409V17.4886H8.30682V19H1.27841ZM13.8494 19.1761C13.0313 19.1761 12.3172 18.9886 11.7074 18.6136C11.0975 18.2386 10.6241 17.714 10.2869 17.0398C9.94981 16.3655 9.78125 15.5777 9.78125 14.6761C9.78125 13.7708 9.94981 12.9792 10.2869 12.3011C10.6241 11.6231 11.0975 11.0966 11.7074 10.7216C12.3172 10.3466 13.0313 10.1591 13.8494 10.1591C14.6676 10.1591 15.3816 10.3466 15.9915 10.7216C16.6013 11.0966 17.0748 11.6231 17.4119 12.3011C17.7491 12.9792 17.9176 13.7708 17.9176 14.6761C17.9176 15.5777 17.7491 16.3655 17.4119 17.0398C17.0748 17.714 16.6013 18.2386 15.9915 18.6136C15.3816 18.9886 14.6676 19.1761 13.8494 19.1761ZM13.8551 17.75C14.3854 17.75 14.8248 17.6098 15.1733 17.3295C15.5218 17.0492 15.7794 16.6761 15.946 16.2102C16.1165 15.7443 16.2017 15.2311 16.2017 14.6705C16.2017 14.1136 16.1165 13.6023 15.946 13.1364C15.7794 12.6667 15.5218 12.2898 15.1733 12.0057C14.8248 11.7216 14.3854 11.5795 13.8551 11.5795C13.321 11.5795 12.8778 11.7216 12.5256 12.0057C12.1771 12.2898 11.9176 12.6667 11.7472 13.1364C11.5805 13.6023 11.4972 14.1136 11.4972 14.6705C11.4972 15.2311 11.5805 15.7443 11.7472 16.2102C11.9176 16.6761 12.1771 17.0492 12.5256 17.3295C12.8778 17.6098 13.321 17.75 13.8551 17.75ZM23.473 22.4545C22.7798 22.4545 22.1832 22.3636 21.6832 22.1818C21.187 22 20.7817 21.7595 20.4673 21.4602C20.1529 21.161 19.9181 20.8333 19.7628 20.4773L21.223 19.875C21.3253 20.0417 21.4616 20.2178 21.6321 20.4034C21.8063 20.5928 22.0412 20.7538 22.3366 20.8864C22.6359 21.0189 23.0204 21.0852 23.4901 21.0852C24.134 21.0852 24.6662 20.928 25.0866 20.6136C25.5071 20.303 25.7173 19.8068 25.7173 19.125V17.4091H25.6094C25.5071 17.5947 25.3594 17.8011 25.1662 18.0284C24.9768 18.2557 24.7154 18.4527 24.3821 18.6193C24.0488 18.786 23.6151 18.8693 23.081 18.8693C22.3916 18.8693 21.7704 18.7083 21.2173 18.3864C20.6681 18.0606 20.2325 17.5814 19.9105 16.9489C19.5923 16.3125 19.4332 15.5303 19.4332 14.6023C19.4332 13.6742 19.5904 12.8788 19.9048 12.2159C20.223 11.553 20.6586 11.0455 21.2116 10.6932C21.7647 10.3371 22.3916 10.1591 23.0923 10.1591C23.634 10.1591 24.0715 10.25 24.4048 10.4318C24.7382 10.6098 24.9976 10.8182 25.1832 11.0568C25.3726 11.2955 25.5185 11.5057 25.6207 11.6875H25.7457V10.2727H27.4105V19.1932C27.4105 19.9432 27.2363 20.5587 26.8878 21.0398C26.5393 21.5208 26.0677 21.8769 25.473 22.108C24.8821 22.339 24.2154 22.4545 23.473 22.4545ZM23.456 17.4602C23.9446 17.4602 24.3575 17.3466 24.6946 17.1193C25.0355 16.8883 25.2931 16.5587 25.4673 16.1307C25.6454 15.6989 25.7344 15.1818 25.7344 14.5795C25.7344 13.9924 25.6473 13.4754 25.473 13.0284C25.2988 12.5814 25.0431 12.233 24.706 11.983C24.3688 11.7292 23.9522 11.6023 23.456 11.6023C22.9446 11.6023 22.5185 11.7348 22.1776 12C21.8366 12.2614 21.5791 12.6174 21.4048 13.0682C21.2344 13.5189 21.1491 14.0227 21.1491 14.5795C21.1491 15.1515 21.2363 15.6534 21.4105 16.0852C21.5848 16.517 21.8423 16.8542 22.1832 17.0966C22.5279 17.339 22.9522 17.4602 23.456 17.4602ZM33.3651 19.1761C32.5469 19.1761 31.8329 18.9886 31.223 18.6136C30.6132 18.2386 30.1397 17.714 29.8026 17.0398C29.4654 16.3655 29.2969 15.5777 29.2969 14.6761C29.2969 13.7708 29.4654 12.9792 29.8026 12.3011C30.1397 11.6231 30.6132 11.0966 31.223 10.7216C31.8329 10.3466 32.5469 10.1591 33.3651 10.1591C34.1832 10.1591 34.8973 10.3466 35.5071 10.7216C36.117 11.0966 36.5904 11.6231 36.9276 12.3011C37.2647 12.9792 37.4332 13.7708 37.4332 14.6761C37.4332 15.5777 37.2647 16.3655 36.9276 17.0398C36.5904 17.714 36.117 18.2386 35.5071 18.6136C34.8973 18.9886 34.1832 19.1761 33.3651 19.1761ZM33.3707 17.75C33.901 17.75 34.3404 17.6098 34.6889 17.3295C35.0374 17.0492 35.295 16.6761 35.4616 16.2102C35.6321 15.7443 35.7173 15.2311 35.7173 14.6705C35.7173 14.1136 35.6321 13.6023 35.4616 13.1364C35.295 12.6667 35.0374 12.2898 34.6889 12.0057C34.3404 11.7216 33.901 11.5795 33.3707 11.5795C32.8366 11.5795 32.3935 11.7216 32.0412 12.0057C31.6927 12.2898 31.4332 12.6667 31.2628 13.1364C31.0961 13.6023 31.0128 14.1136 31.0128 14.6705C31.0128 15.2311 31.0961 15.7443 31.2628 16.2102C31.4332 16.6761 31.6927 17.0492 32.0412 17.3295C32.3935 17.6098 32.8366 17.75 33.3707 17.75ZM44.858 15.3807V10.2727H46.5625V19H44.892V17.4886H44.8011C44.6004 17.9545 44.2784 18.3428 43.8352 18.6534C43.3958 18.9602 42.8485 19.1136 42.1932 19.1136C41.6326 19.1136 41.1364 18.9905 40.7045 18.7443C40.2765 18.4943 39.9394 18.125 39.6932 17.6364C39.4508 17.1477 39.3295 16.5436 39.3295 15.8239V10.2727H41.0284V15.6193C41.0284 16.214 41.1932 16.6875 41.5227 17.0398C41.8523 17.392 42.2803 17.5682 42.8068 17.5682C43.125 17.5682 43.4413 17.4886 43.7557 17.3295C44.0739 17.1705 44.3371 16.9299 44.5455 16.608C44.7576 16.286 44.8617 15.8769 44.858 15.3807ZM52.919 10.2727V11.6364H48.152V10.2727H52.919ZM49.4304 8.18182H51.1293V16.4375C51.1293 16.767 51.1785 17.0152 51.277 17.1818C51.3755 17.3447 51.5024 17.4564 51.6577 17.517C51.8168 17.5739 51.9891 17.6023 52.1747 17.6023C52.3111 17.6023 52.4304 17.5928 52.5327 17.5739C52.6349 17.5549 52.7145 17.5398 52.7713 17.5284L53.0781 18.9318C52.9796 18.9697 52.8395 19.0076 52.6577 19.0455C52.4759 19.0871 52.2486 19.1098 51.9759 19.1136C51.5289 19.1212 51.1122 19.0417 50.7259 18.875C50.3395 18.7083 50.027 18.4508 49.7884 18.1023C49.5497 17.7538 49.4304 17.3163 49.4304 16.7898V8.18182Z" fill="white"/>
</svg>
