<svg width="115" height="36" viewBox="0 0 115 36" fill="none" xmlns="http://www.w3.org/2000/svg">
<path d="M25.5 9.5H6.625C5.66359 9.5 4.74156 9.88192 4.06174 10.5617C3.38192 11.2416 3 12.1636 3 13.125V23C3 23.9283 3.36875 24.8185 4.02513 25.4749C4.6815 26.1313 5.57174 26.5 6.5 26.5H7V28.98C7 29.6483 7.2655 30.2893 7.73809 30.7619C8.21068 31.2345 8.85166 31.5 9.52 31.5H22.48C23.1483 31.5 23.7893 31.2345 24.2619 30.7619C24.7345 30.2893 25 29.6483 25 28.98V26.5H25.5C26.4283 26.5 27.3185 26.1313 27.9749 25.4749C28.6313 24.8185 29 23.9283 29 23V13C29 12.0717 28.6313 11.1815 27.9749 10.5251C27.3185 9.86875 26.4283 9.5 25.5 9.5ZM23 28.98C22.9995 29.1178 22.9446 29.2497 22.8471 29.3471C22.7497 29.4446 22.6178 29.4995 22.48 29.5H9.52C9.38224 29.4995 9.25026 29.4446 9.15285 29.3471C9.05544 29.2497 9.00049 29.1178 9 28.98V19.02C9.00049 18.8822 9.05544 18.7503 9.15285 18.6529C9.25026 18.5554 9.38224 18.5005 9.52 18.5H22.48C22.6178 18.5005 22.7497 18.5554 22.8471 18.6529C22.9446 18.7503 22.9995 18.8822 23 19.02V28.98ZM24.625 15.495C24.3191 15.5196 24.0129 15.4497 23.748 15.2949C23.483 15.14 23.2719 14.9076 23.1431 14.6289C23.0144 14.3503 22.9742 14.0389 23.0281 13.7367C23.0819 13.4346 23.2271 13.1562 23.4442 12.9392C23.6612 12.7221 23.9396 12.5769 24.2417 12.5231C24.5439 12.4692 24.8553 12.5094 25.1339 12.6381C25.4126 12.7669 25.645 12.978 25.7999 13.243C25.9547 13.5079 26.0246 13.8141 26 14.12C25.9715 14.4752 25.8174 14.8085 25.5655 15.0605C25.3135 15.3124 24.9802 15.4665 24.625 15.495ZM21.5 5.5H10.5C9.65875 5.50125 8.84601 5.80498 8.21012 6.35573C7.57422 6.90649 7.15758 7.66755 7.03625 8.5H24.9638C24.8424 7.66755 24.4258 6.90649 23.7899 6.35573C23.154 5.80498 22.3412 5.50125 21.5 5.5Z" fill="#2BCBBA"/>
<path d="M47.9 20.398C47.9 21.4833 47.4967 22.334 46.69 22.95C45.8833 23.5513 44.6953 23.852 43.126 23.852C42.51 23.852 41.9453 23.808 41.432 23.72C40.9333 23.632 40.5007 23.5 40.134 23.324C39.7673 23.148 39.4813 22.928 39.276 22.664C39.0707 22.4 38.968 22.092 38.968 21.74C38.968 21.4173 39.034 21.146 39.166 20.926C39.298 20.6913 39.4667 20.5007 39.672 20.354C40.0973 20.6033 40.5813 20.8233 41.124 21.014C41.6667 21.2047 42.2973 21.3 43.016 21.3C44.0573 21.3 44.578 21.0067 44.578 20.42C44.578 20.1707 44.4827 19.98 44.292 19.848C44.116 19.716 43.808 19.5987 43.368 19.496L42.488 19.298C41.2853 19.0487 40.3907 18.6673 39.804 18.154C39.2173 17.626 38.924 16.8927 38.924 15.954C38.924 14.9127 39.342 14.0913 40.178 13.49C41.0287 12.874 42.1653 12.566 43.588 12.566C44.116 12.566 44.6147 12.61 45.084 12.698C45.5533 12.7713 45.9567 12.8887 46.294 13.05C46.6313 13.2113 46.8953 13.4167 47.086 13.666C47.2913 13.9007 47.394 14.1793 47.394 14.502C47.394 14.7953 47.3353 15.0593 47.218 15.294C47.1007 15.514 46.9467 15.6973 46.756 15.844C46.6387 15.7707 46.4627 15.69 46.228 15.602C46.008 15.514 45.766 15.4333 45.502 15.36C45.238 15.2867 44.9593 15.228 44.666 15.184C44.3727 15.14 44.1013 15.118 43.852 15.118C43.3387 15.118 42.9353 15.1913 42.642 15.338C42.3633 15.47 42.224 15.6753 42.224 15.954C42.224 16.1593 42.3047 16.3207 42.466 16.438C42.6273 16.5553 42.9207 16.6653 43.346 16.768L44.182 16.966C45.5167 17.2593 46.47 17.6847 47.042 18.242C47.614 18.7993 47.9 19.518 47.9 20.398ZM53.2328 20.002C53.2328 20.4127 53.3648 20.7133 53.6288 20.904C53.8928 21.08 54.2594 21.168 54.7288 21.168C54.9488 21.168 55.1834 21.146 55.4328 21.102C55.6821 21.0433 55.8948 20.9773 56.0708 20.904C56.2028 21.0507 56.3128 21.2193 56.4008 21.41C56.4888 21.6007 56.5328 21.8207 56.5328 22.07C56.5328 22.5833 56.3274 23.0087 55.9168 23.346C55.5208 23.6687 54.8241 23.83 53.8268 23.83C52.5948 23.83 51.6341 23.5513 50.9448 22.994C50.2554 22.422 49.9108 21.498 49.9108 20.222V10.344C50.0721 10.3 50.2848 10.256 50.5488 10.212C50.8128 10.1533 51.0988 10.124 51.4068 10.124C52.0521 10.124 52.5141 10.2413 52.7928 10.476C53.0861 10.696 53.2328 11.1067 53.2328 11.708V13.138H56.2688C56.3421 13.2847 56.4154 13.4753 56.4888 13.71C56.5621 13.93 56.5988 14.1647 56.5988 14.414C56.5988 14.8833 56.4888 15.2207 56.2688 15.426C56.0634 15.6313 55.7921 15.734 55.4548 15.734H53.2328V20.002ZM62.9035 21.366C63.2262 21.366 63.5415 21.3367 63.8495 21.278C64.1722 21.2047 64.4142 21.1167 64.5755 21.014V18.99L62.7715 19.144C62.3022 19.188 61.9208 19.298 61.6275 19.474C61.3488 19.6353 61.2095 19.8847 61.2095 20.222C61.2095 20.574 61.3415 20.8527 61.6055 21.058C61.8695 21.2633 62.3022 21.366 62.9035 21.366ZM62.7715 12.588C63.5342 12.588 64.2235 12.6687 64.8395 12.83C65.4702 12.9767 66.0055 13.2113 66.4455 13.534C66.8855 13.8567 67.2228 14.2673 67.4575 14.766C67.7068 15.2647 67.8315 15.8513 67.8315 16.526V21.498C67.8315 21.8793 67.7288 22.1873 67.5235 22.422C67.3328 22.642 67.0982 22.8327 66.8195 22.994C66.3648 23.2727 65.8075 23.4853 65.1475 23.632C64.4875 23.7787 63.7395 23.852 62.9035 23.852C61.3928 23.852 60.1902 23.566 59.2955 22.994C58.4008 22.4073 57.9535 21.52 57.9535 20.332C57.9535 19.32 58.2542 18.55 58.8555 18.022C59.4568 17.494 60.3808 17.164 61.6275 17.032L64.5535 16.724V16.482C64.5535 16.0127 64.3628 15.668 63.9815 15.448C63.6002 15.228 63.0502 15.118 62.3315 15.118C61.7742 15.118 61.2242 15.184 60.6815 15.316C60.1535 15.448 59.6768 15.602 59.2515 15.778C59.0755 15.6607 58.9215 15.4847 58.7895 15.25C58.6722 15.0007 58.6135 14.7367 58.6135 14.458C58.6135 13.8127 58.9508 13.3507 59.6255 13.072C60.0508 12.9107 60.5422 12.7933 61.0995 12.72C61.6715 12.632 62.2288 12.588 62.7715 12.588ZM86.2929 23.478C86.1316 23.522 85.9189 23.5587 85.6549 23.588C85.3909 23.632 85.0976 23.654 84.7749 23.654C84.1149 23.654 83.6383 23.5513 83.3449 23.346C83.0663 23.126 82.9269 22.708 82.9269 22.092V16.636C82.9269 16.152 82.7949 15.8 82.5309 15.58C82.2669 15.3453 81.9076 15.228 81.4529 15.228C81.1596 15.228 80.8809 15.2793 80.6169 15.382C80.3676 15.4847 80.1403 15.6167 79.9349 15.778C79.9496 15.8513 79.9569 15.9247 79.9569 15.998C79.9716 16.0713 79.9789 16.1447 79.9789 16.218V23.478C79.8176 23.522 79.6049 23.5587 79.3409 23.588C79.0769 23.632 78.7836 23.654 78.4609 23.654C77.8009 23.654 77.3243 23.5513 77.0309 23.346C76.7523 23.126 76.6129 22.708 76.6129 22.092V16.636C76.6129 16.152 76.4663 15.8 76.1729 15.58C75.8796 15.3453 75.5203 15.228 75.0949 15.228C74.7869 15.228 74.5083 15.2793 74.2589 15.382C74.0096 15.47 73.8043 15.558 73.6429 15.646V23.478C73.4963 23.522 73.2909 23.5587 73.0269 23.588C72.7629 23.632 72.4696 23.654 72.1469 23.654C71.4869 23.654 71.0103 23.5513 70.7169 23.346C70.4236 23.126 70.2769 22.708 70.2769 22.092V15.294C70.2769 14.9127 70.3576 14.6047 70.5189 14.37C70.6803 14.1353 70.9076 13.9153 71.2009 13.71C71.6849 13.3727 72.2789 13.1013 72.9829 12.896C73.7016 12.6907 74.4496 12.588 75.2269 12.588C75.8429 12.588 76.4223 12.676 76.9649 12.852C77.5223 13.0133 78.0283 13.27 78.4829 13.622C78.9229 13.3287 79.4216 13.0867 79.9789 12.896C80.5363 12.6907 81.1963 12.588 81.9589 12.588C82.5309 12.588 83.0736 12.6613 83.5869 12.808C84.1149 12.94 84.5769 13.1673 84.9729 13.49C85.3689 13.798 85.6843 14.2087 85.9189 14.722C86.1683 15.2207 86.2929 15.8293 86.2929 16.548V23.478ZM94.077 23.83C93.6956 23.83 93.3436 23.7933 93.021 23.72C92.6983 23.6613 92.405 23.5807 92.141 23.478V27.416C91.9943 27.46 91.789 27.504 91.525 27.548C91.261 27.592 90.9676 27.614 90.645 27.614C89.985 27.614 89.5083 27.504 89.215 27.284C88.9216 27.064 88.775 26.646 88.775 26.03V15.14C88.775 14.7587 88.8556 14.4507 89.017 14.216C89.1783 13.9667 89.4056 13.7467 89.699 13.556C90.139 13.2773 90.7036 13.05 91.393 12.874C92.0823 12.6833 92.845 12.588 93.681 12.588C94.5316 12.588 95.309 12.698 96.013 12.918C96.7316 13.1233 97.3476 13.4533 97.861 13.908C98.3743 14.3627 98.7703 14.942 99.049 15.646C99.3423 16.35 99.489 17.186 99.489 18.154C99.489 19.078 99.3496 19.8993 99.071 20.618C98.807 21.322 98.433 21.916 97.949 22.4C97.465 22.8693 96.893 23.2287 96.233 23.478C95.573 23.7127 94.8543 23.83 94.077 23.83ZM93.571 21.168C94.363 21.168 94.9716 20.9187 95.397 20.42C95.837 19.9213 96.057 19.166 96.057 18.154C96.057 17.1127 95.8443 16.3647 95.419 15.91C95.0083 15.4553 94.429 15.228 93.681 15.228C93.3436 15.228 93.0503 15.272 92.801 15.36C92.5516 15.4333 92.3243 15.5213 92.119 15.624V20.794C92.3243 20.9113 92.5443 21.0067 92.779 21.08C93.0136 21.1387 93.2776 21.168 93.571 21.168Z" fill="#2BCBBA"/>
<path d="M106.556 23.488C106.476 23.512 106.364 23.532 106.22 23.548C106.076 23.572 105.916 23.584 105.74 23.584C105.38 23.584 105.12 23.528 104.96 23.416C104.808 23.296 104.732 23.068 104.732 22.732V17.8C104.812 17.776 104.924 17.752 105.068 17.728C105.212 17.704 105.372 17.692 105.548 17.692C105.908 17.692 106.164 17.752 106.316 17.872C106.476 17.992 106.556 18.22 106.556 18.556V23.488ZM104.624 16.072C104.624 15.8 104.716 15.568 104.9 15.376C105.092 15.184 105.34 15.088 105.644 15.088C105.948 15.088 106.192 15.184 106.376 15.376C106.568 15.568 106.664 15.8 106.664 16.072C106.664 16.352 106.568 16.588 106.376 16.78C106.192 16.972 105.948 17.068 105.644 17.068C105.34 17.068 105.092 16.972 104.9 16.78C104.716 16.588 104.624 16.352 104.624 16.072ZM113.833 20.608C113.833 21.08 113.761 21.508 113.617 21.892C113.473 22.268 113.265 22.588 112.993 22.852C112.729 23.116 112.409 23.32 112.033 23.464C111.657 23.608 111.237 23.68 110.773 23.68C110.309 23.68 109.885 23.612 109.501 23.476C109.125 23.332 108.801 23.128 108.529 22.864C108.265 22.6 108.061 22.28 107.917 21.904C107.773 21.52 107.701 21.088 107.701 20.608C107.701 20.144 107.773 19.724 107.917 19.348C108.069 18.964 108.277 18.64 108.541 18.376C108.813 18.112 109.137 17.908 109.513 17.764C109.897 17.62 110.317 17.548 110.773 17.548C111.229 17.548 111.645 17.62 112.021 17.764C112.397 17.908 112.717 18.116 112.981 18.388C113.253 18.652 113.461 18.972 113.605 19.348C113.757 19.724 113.833 20.144 113.833 20.608ZM110.773 18.988C110.397 18.988 110.105 19.128 109.897 19.408C109.689 19.688 109.585 20.088 109.585 20.608C109.585 21.144 109.685 21.552 109.885 21.832C110.093 22.104 110.389 22.24 110.773 22.24C111.157 22.24 111.449 22.1 111.649 21.82C111.857 21.54 111.961 21.136 111.961 20.608C111.961 20.096 111.857 19.7 111.649 19.42C111.441 19.132 111.149 18.988 110.773 18.988Z" fill="#2BCBBA"/>
<circle cx="102" cy="22.5" r="1" fill="#2BCBBA"/>
</svg>
