<svg width="61" height="19" viewBox="0 0 61 19" fill="none" xmlns="http://www.w3.org/2000/svg">
<line x1="2" y1="18" x2="17" y2="18" stroke="#2BCBBA" stroke-width="2" stroke-linecap="round"/>
<path d="M1.07599 14V3.09091H5.1669C6.00497 3.09091 6.7081 3.23651 7.27628 3.5277C7.84801 3.81889 8.27947 4.22727 8.57067 4.75284C8.86541 5.27486 9.01278 5.88388 9.01278 6.5799C9.01278 7.27947 8.86364 7.88672 8.56534 8.40163C8.2706 8.913 7.83558 9.30895 7.2603 9.58949C6.68501 9.86648 5.97834 10.005 5.14027 10.005H2.22656V8.36435H4.87393C5.36399 8.36435 5.76527 8.29687 6.07777 8.16193C6.39027 8.02344 6.62109 7.8228 6.77024 7.56001C6.92294 7.29368 6.99929 6.96697 6.99929 6.5799C6.99929 6.19283 6.92294 5.86257 6.77024 5.58913C6.61754 5.31214 6.38494 5.10263 6.07244 4.96058C5.75994 4.81499 5.35689 4.74219 4.86328 4.74219H3.0522V14H1.07599ZM6.71165 9.05682L9.41229 14H7.20703L4.55433 9.05682H6.71165ZM14.2516 14.1598C13.4313 14.1598 12.7228 13.9893 12.1262 13.6484C11.5332 13.304 11.0769 12.8175 10.7573 12.1889C10.4377 11.5568 10.2779 10.8129 10.2779 9.95703C10.2779 9.11541 10.4377 8.37678 10.7573 7.74112C11.0804 7.10192 11.5314 6.60476 12.1103 6.24964C12.6891 5.89098 13.3691 5.71165 14.1504 5.71165C14.6547 5.71165 15.1305 5.79332 15.5779 5.95668C16.0289 6.11648 16.4267 6.36506 16.7711 6.70241C17.1191 7.03977 17.3926 7.46946 17.5914 7.99148C17.7903 8.50994 17.8897 9.12784 17.8897 9.84517V10.4364H11.1834V9.13672H16.0414C16.0378 8.7674 15.9579 8.43892 15.8017 8.15128C15.6454 7.86009 15.427 7.63104 15.1465 7.46413C14.8695 7.29723 14.5463 7.21378 14.177 7.21378C13.7828 7.21378 13.4366 7.30966 13.1383 7.50142C12.84 7.68963 12.6074 7.93821 12.4405 8.24716C12.2772 8.55256 12.1937 8.88814 12.1902 9.25391V10.3885C12.1902 10.8643 12.2772 11.2727 12.4512 11.6136C12.6252 11.951 12.8684 12.2102 13.1809 12.3913C13.4934 12.5689 13.8592 12.6577 14.2782 12.6577C14.5588 12.6577 14.8127 12.6186 15.04 12.5405C15.2672 12.4588 15.4643 12.3398 15.6312 12.1836C15.7981 12.0273 15.9242 11.8338 16.0094 11.603L17.8098 11.8054C17.6962 12.2812 17.4796 12.6967 17.16 13.0518C16.8439 13.4034 16.4391 13.6768 15.9455 13.8722C15.4519 14.0639 14.8873 14.1598 14.2516 14.1598ZM23.0793 17.2386C22.3868 17.2386 21.792 17.1445 21.2948 16.9563C20.7977 16.7717 20.3982 16.5231 20.0963 16.2106C19.7945 15.8981 19.585 15.5518 19.4678 15.1719L21.2043 14.7511C21.2824 14.9109 21.396 15.0689 21.5452 15.2251C21.6943 15.3849 21.895 15.5163 22.1471 15.6193C22.4028 15.7259 22.7242 15.7791 23.1112 15.7791C23.6581 15.7791 24.1109 15.646 24.4695 15.3796C24.8282 15.1168 25.0075 14.6836 25.0075 14.0799V12.5298H24.9117C24.8122 12.7287 24.6666 12.9329 24.4749 13.1424C24.2867 13.3519 24.0363 13.5277 23.7238 13.6697C23.4149 13.8118 23.026 13.8828 22.5573 13.8828C21.9287 13.8828 21.3588 13.7354 20.8474 13.4407C20.3396 13.1424 19.9347 12.6985 19.6329 12.109C19.3346 11.516 19.1855 10.7738 19.1855 9.88246C19.1855 8.98402 19.3346 8.22585 19.6329 7.60795C19.9347 6.98651 20.3414 6.51598 20.8527 6.19638C21.3641 5.87322 21.934 5.71165 22.5626 5.71165C23.042 5.71165 23.4362 5.79332 23.7451 5.95668C24.0576 6.11648 24.3062 6.31001 24.4909 6.53729C24.6755 6.76101 24.8158 6.9723 24.9117 7.17116H25.0182V5.81818H26.9198V14.1332C26.9198 14.8327 26.7529 15.4116 26.4191 15.8697C26.0853 16.3278 25.629 16.6705 25.0502 16.8977C24.4713 17.125 23.8144 17.2386 23.0793 17.2386ZM23.0953 12.37C23.5036 12.37 23.8517 12.2706 24.1393 12.0717C24.4269 11.8729 24.6453 11.587 24.7945 11.2141C24.9436 10.8413 25.0182 10.3938 25.0182 9.8718C25.0182 9.35689 24.9436 8.90589 24.7945 8.51882C24.6489 8.13175 24.4323 7.83168 24.1446 7.61861C23.8605 7.40199 23.5107 7.29368 23.0953 7.29368C22.6656 7.29368 22.3069 7.40554 22.0193 7.62926C21.7316 7.85298 21.515 8.16016 21.3694 8.55078C21.2238 8.93786 21.151 9.3782 21.151 9.8718C21.151 10.3725 21.2238 10.8111 21.3694 11.1875C21.5186 11.5604 21.7369 11.8516 22.0246 12.0611C22.3158 12.267 22.6727 12.37 23.0953 12.37ZM28.896 14V5.81818H30.8243V14H28.896ZM29.8655 4.65696C29.5601 4.65696 29.2973 4.55575 29.0771 4.35334C28.857 4.14737 28.7469 3.90057 28.7469 3.61293C28.7469 3.32173 28.857 3.07493 29.0771 2.87251C29.2973 2.66655 29.5601 2.56357 29.8655 2.56357C30.1744 2.56357 30.4372 2.66655 30.6539 2.87251C30.874 3.07493 30.9841 3.32173 30.9841 3.61293C30.9841 3.90057 30.874 4.14737 30.6539 4.35334C30.4372 4.55575 30.1744 4.65696 29.8655 4.65696ZM39.2738 7.98082L37.516 8.17258C37.4663 7.99503 37.3793 7.82812 37.255 7.67188C37.1342 7.51562 36.9709 7.38956 36.7649 7.29368C36.5589 7.1978 36.3068 7.14986 36.0085 7.14986C35.6072 7.14986 35.2699 7.23686 34.9964 7.41087C34.7266 7.58487 34.5934 7.81037 34.5969 8.08736C34.5934 8.32528 34.6804 8.51882 34.858 8.66797C35.0391 8.81712 35.3374 8.93963 35.7528 9.03551L37.1484 9.33381C37.9226 9.50071 38.4979 9.76527 38.8743 10.1275C39.2543 10.4897 39.446 10.9638 39.4496 11.5497C39.446 12.0646 39.2951 12.5192 38.9968 12.9134C38.7021 13.304 38.2919 13.6094 37.7663 13.8295C37.2408 14.0497 36.6371 14.1598 35.9553 14.1598C34.9538 14.1598 34.1477 13.9503 33.5369 13.5312C32.9261 13.1087 32.5621 12.521 32.445 11.7681L34.3253 11.587C34.4105 11.9563 34.5916 12.2351 34.8686 12.4233C35.1456 12.6115 35.506 12.7056 35.9499 12.7056C36.408 12.7056 36.7756 12.6115 37.0526 12.4233C37.3331 12.2351 37.4734 12.0025 37.4734 11.7255C37.4734 11.4911 37.3828 11.2976 37.2017 11.1449C37.0241 10.9922 36.7472 10.875 36.3707 10.7933L34.9751 10.5004C34.1903 10.337 33.6097 10.0618 33.2333 9.67472C32.8569 9.28409 32.6705 8.79048 32.674 8.19389C32.6705 7.68963 32.8072 7.25284 33.0842 6.88352C33.3647 6.51065 33.7536 6.22301 34.2507 6.0206C34.7514 5.81463 35.3285 5.71165 35.9819 5.71165C36.9407 5.71165 37.6953 5.91584 38.2457 6.32422C38.7997 6.7326 39.1424 7.2848 39.2738 7.98082ZM45.1252 5.81818V7.30966H40.4217V5.81818H45.1252ZM41.5829 3.85795H43.5112V11.5391C43.5112 11.7983 43.5502 11.9972 43.6284 12.1357C43.71 12.2706 43.8166 12.3629 43.948 12.4126C44.0794 12.4624 44.225 12.4872 44.3848 12.4872C44.5055 12.4872 44.6156 12.4783 44.715 12.4606C44.818 12.4428 44.8961 12.4268 44.9494 12.4126L45.2743 13.9201C45.1713 13.9556 45.024 13.9947 44.8322 14.0373C44.644 14.0799 44.4132 14.1048 44.1397 14.1119C43.6568 14.1261 43.2218 14.0533 42.8347 13.8935C42.4476 13.7301 42.1404 13.478 41.9132 13.1371C41.6895 12.7962 41.5794 12.37 41.5829 11.8587V3.85795ZM50.2721 14.1598C49.4518 14.1598 48.7433 13.9893 48.1468 13.6484C47.5537 13.304 47.0974 12.8175 46.7778 12.1889C46.4582 11.5568 46.2984 10.8129 46.2984 9.95703C46.2984 9.11541 46.4582 8.37678 46.7778 7.74112C47.1009 7.10192 47.5519 6.60476 48.1308 6.24964C48.7096 5.89098 49.3896 5.71165 50.1709 5.71165C50.6752 5.71165 51.151 5.79332 51.5985 5.95668C52.0494 6.11648 52.4472 6.36506 52.7916 6.70241C53.1396 7.03977 53.4131 7.46946 53.6119 7.99148C53.8108 8.50994 53.9102 9.12784 53.9102 9.84517V10.4364H47.2039V9.13672H52.0619C52.0583 8.7674 51.9784 8.43892 51.8222 8.15128C51.6659 7.86009 51.4475 7.63104 51.167 7.46413C50.89 7.29723 50.5669 7.21378 50.1975 7.21378C49.8034 7.21378 49.4571 7.30966 49.1588 7.50142C48.8605 7.68963 48.6279 7.93821 48.461 8.24716C48.2977 8.55256 48.2142 8.88814 48.2107 9.25391V10.3885C48.2107 10.8643 48.2977 11.2727 48.4717 11.6136C48.6457 11.951 48.8889 12.2102 49.2014 12.3913C49.5139 12.5689 49.8797 12.6577 50.2987 12.6577C50.5793 12.6577 50.8332 12.6186 51.0605 12.5405C51.2877 12.4588 51.4848 12.3398 51.6517 12.1836C51.8186 12.0273 51.9447 11.8338 52.0299 11.603L53.8303 11.8054C53.7167 12.2812 53.5001 12.6967 53.1805 13.0518C52.8644 13.4034 52.4596 13.6768 51.966 13.8722C51.4724 14.0639 50.9078 14.1598 50.2721 14.1598ZM55.5415 14V5.81818H57.4112V7.18182H57.4964C57.6456 6.70952 57.9013 6.34553 58.2635 6.08984C58.6293 5.83061 59.0465 5.70099 59.5153 5.70099C59.6218 5.70099 59.7408 5.70632 59.8722 5.71697C60.0071 5.72408 60.119 5.73651 60.2077 5.75426V7.52805C60.1261 7.49964 59.9964 7.47479 59.8189 7.45348C59.6449 7.42862 59.4762 7.41619 59.3129 7.41619C58.9613 7.41619 58.6452 7.49254 58.3647 7.64524C58.0877 7.79439 57.8693 8.00213 57.7095 8.26847C57.5497 8.5348 57.4698 8.84197 57.4698 9.18999V14H55.5415Z" fill="black"/>
</svg>
