<svg width="360" height="52" viewBox="0 0 360 52" fill="none" xmlns="http://www.w3.org/2000/svg">
<rect width="360" height="52" rx="4" fill="black"/>
<line x1="121" y1="36" x2="130" y2="36" stroke="#2BCBBA" stroke-width="2" stroke-linecap="round"/>
<path d="M120.278 32V20.3636H124.426C125.328 20.3636 126.076 20.5189 126.67 20.8295C127.269 21.1402 127.716 21.5701 128.011 22.1193C128.307 22.6648 128.455 23.2955 128.455 24.0114C128.455 24.7235 128.305 25.3504 128.006 25.892C127.71 26.4299 127.263 26.8485 126.665 27.1477C126.07 27.447 125.322 27.5966 124.42 27.5966H121.278V26.0852H124.261C124.83 26.0852 125.292 26.0038 125.648 25.8409C126.008 25.678 126.271 25.4413 126.438 25.1307C126.604 24.8201 126.688 24.447 126.688 24.0114C126.688 23.572 126.602 23.1913 126.432 22.8693C126.265 22.5473 126.002 22.3011 125.642 22.1307C125.286 21.9564 124.818 21.8693 124.239 21.8693H122.034V32H120.278ZM126.023 26.75L128.898 32H126.898L124.08 26.75H126.023ZM134.107 32.1761C133.247 32.1761 132.506 31.9924 131.885 31.625C131.268 31.2538 130.79 30.733 130.453 30.0625C130.12 29.3883 129.953 28.5985 129.953 27.6932C129.953 26.7992 130.12 26.0114 130.453 25.3295C130.79 24.6477 131.26 24.1155 131.862 23.733C132.468 23.3504 133.177 23.1591 133.987 23.1591C134.48 23.1591 134.957 23.2405 135.419 23.4034C135.881 23.5663 136.296 23.822 136.663 24.1705C137.031 24.5189 137.321 24.9716 137.533 25.5284C137.745 26.0814 137.851 26.7538 137.851 27.5455V28.1477H130.913V26.875H136.186C136.186 26.428 136.095 26.0322 135.913 25.6875C135.732 25.339 135.476 25.0644 135.146 24.8636C134.821 24.6629 134.438 24.5625 133.999 24.5625C133.521 24.5625 133.105 24.6799 132.749 24.9148C132.396 25.1458 132.124 25.4489 131.93 25.8239C131.741 26.1951 131.646 26.5985 131.646 27.0341V28.0284C131.646 28.6117 131.749 29.108 131.953 29.517C132.161 29.9261 132.451 30.2386 132.822 30.4545C133.194 30.6667 133.627 30.7727 134.124 30.7727C134.446 30.7727 134.739 30.7273 135.004 30.6364C135.269 30.5417 135.499 30.4015 135.692 30.2159C135.885 30.0303 136.033 29.8011 136.135 29.5284L137.743 29.8182C137.614 30.2917 137.383 30.7064 137.05 31.0625C136.72 31.4148 136.305 31.6894 135.805 31.8864C135.309 32.0795 134.743 32.1761 134.107 32.1761ZM146.276 25.4034L144.736 25.6761C144.671 25.4792 144.569 25.2917 144.429 25.1136C144.293 24.9356 144.107 24.7898 143.872 24.6761C143.637 24.5625 143.344 24.5057 142.991 24.5057C142.51 24.5057 142.109 24.6136 141.787 24.8295C141.465 25.0417 141.304 25.3163 141.304 25.6534C141.304 25.9451 141.412 26.1799 141.628 26.358C141.844 26.536 142.192 26.6818 142.673 26.7955L144.06 27.1136C144.863 27.2992 145.461 27.5852 145.855 27.9716C146.249 28.358 146.446 28.8598 146.446 29.4773C146.446 30 146.295 30.4659 145.991 30.875C145.692 31.2803 145.274 31.5985 144.736 31.8295C144.202 32.0606 143.582 32.1761 142.878 32.1761C141.901 32.1761 141.103 31.9678 140.486 31.5511C139.868 31.1307 139.49 30.5341 139.349 29.7614L140.991 29.5114C141.094 29.9394 141.304 30.2633 141.622 30.483C141.94 30.6989 142.355 30.8068 142.866 30.8068C143.423 30.8068 143.868 30.6913 144.202 30.4602C144.535 30.2254 144.702 29.9394 144.702 29.6023C144.702 29.3295 144.599 29.1004 144.395 28.9148C144.194 28.7292 143.885 28.589 143.469 28.4943L141.991 28.1705C141.177 27.9848 140.575 27.6894 140.185 27.2841C139.798 26.8788 139.605 26.3655 139.605 25.7443C139.605 25.2292 139.749 24.7784 140.037 24.392C140.325 24.0057 140.723 23.7045 141.23 23.4886C141.738 23.2689 142.319 23.1591 142.974 23.1591C143.918 23.1591 144.66 23.3636 145.202 23.7727C145.743 24.178 146.101 24.7216 146.276 25.4034ZM152.075 32.1761C151.215 32.1761 150.475 31.9924 149.854 31.625C149.236 31.2538 148.759 30.733 148.422 30.0625C148.089 29.3883 147.922 28.5985 147.922 27.6932C147.922 26.7992 148.089 26.0114 148.422 25.3295C148.759 24.6477 149.229 24.1155 149.831 23.733C150.437 23.3504 151.145 23.1591 151.956 23.1591C152.448 23.1591 152.926 23.2405 153.388 23.4034C153.85 23.5663 154.265 23.822 154.632 24.1705C155 24.5189 155.289 24.9716 155.501 25.5284C155.714 26.0814 155.82 26.7538 155.82 27.5455V28.1477H148.882V26.875H154.155C154.155 26.428 154.064 26.0322 153.882 25.6875C153.7 25.339 153.445 25.0644 153.115 24.8636C152.789 24.6629 152.407 24.5625 151.967 24.5625C151.49 24.5625 151.073 24.6799 150.717 24.9148C150.365 25.1458 150.092 25.4489 149.899 25.8239C149.71 26.1951 149.615 26.5985 149.615 27.0341V28.0284C149.615 28.6117 149.717 29.108 149.922 29.517C150.13 29.9261 150.42 30.2386 150.791 30.4545C151.162 30.6667 151.596 30.7727 152.092 30.7727C152.414 30.7727 152.708 30.7273 152.973 30.6364C153.238 30.5417 153.467 30.4015 153.661 30.2159C153.854 30.0303 154.001 29.8011 154.104 29.5284L155.712 29.8182C155.583 30.2917 155.352 30.7064 155.018 31.0625C154.689 31.4148 154.274 31.6894 153.774 31.8864C153.278 32.0795 152.712 32.1761 152.075 32.1761ZM161.778 23.2727V24.6364H157.011V23.2727H161.778ZM158.29 21.1818H159.989V29.4375C159.989 29.767 160.038 30.0152 160.136 30.1818C160.235 30.3447 160.362 30.4564 160.517 30.517C160.676 30.5739 160.848 30.6023 161.034 30.6023C161.17 30.6023 161.29 30.5928 161.392 30.5739C161.494 30.5549 161.574 30.5398 161.631 30.5284L161.938 31.9318C161.839 31.9697 161.699 32.0076 161.517 32.0455C161.335 32.0871 161.108 32.1098 160.835 32.1136C160.388 32.1212 159.972 32.0417 159.585 31.875C159.199 31.7083 158.886 31.4508 158.648 31.1023C158.409 30.7538 158.29 30.3163 158.29 29.7898V21.1818ZM168.028 32V20.3636H172.176C173.081 20.3636 173.831 20.5284 174.426 20.858C175.021 21.1875 175.466 21.6383 175.761 22.2102C176.057 22.7784 176.205 23.4186 176.205 24.1307C176.205 24.8466 176.055 25.4905 175.756 26.0625C175.46 26.6307 175.013 27.0814 174.415 27.4148C173.82 27.7443 173.072 27.9091 172.17 27.9091H169.318V26.4205H172.011C172.583 26.4205 173.047 26.322 173.403 26.125C173.759 25.9242 174.021 25.6515 174.188 25.3068C174.354 24.9621 174.438 24.5701 174.438 24.1307C174.438 23.6913 174.354 23.3011 174.188 22.9602C174.021 22.6193 173.758 22.3523 173.398 22.1591C173.042 21.9659 172.572 21.8693 171.989 21.8693H169.784V32H168.028ZM180.588 32.1932C180.035 32.1932 179.535 32.0909 179.088 31.8864C178.641 31.678 178.287 31.3769 178.026 30.983C177.768 30.589 177.639 30.1061 177.639 29.5341C177.639 29.0417 177.734 28.6364 177.923 28.3182C178.113 28 178.368 27.7481 178.69 27.5625C179.012 27.3769 179.372 27.2367 179.77 27.142C180.168 27.0473 180.573 26.9754 180.986 26.9261C181.509 26.8655 181.933 26.8163 182.259 26.7784C182.584 26.7367 182.821 26.6705 182.969 26.5795C183.116 26.4886 183.19 26.3409 183.19 26.1364V26.0966C183.19 25.6004 183.05 25.2159 182.77 24.9432C182.493 24.6705 182.08 24.5341 181.531 24.5341C180.959 24.5341 180.509 24.661 180.179 24.9148C179.853 25.1648 179.628 25.4432 179.503 25.75L177.906 25.3864C178.096 24.8561 178.372 24.428 178.736 24.1023C179.103 23.7727 179.526 23.5341 180.003 23.3864C180.48 23.2348 180.982 23.1591 181.509 23.1591C181.857 23.1591 182.226 23.2008 182.616 23.2841C183.01 23.3636 183.378 23.5114 183.719 23.7273C184.063 23.9432 184.346 24.2519 184.565 24.6534C184.785 25.0511 184.895 25.5682 184.895 26.2045V32H183.236V30.8068H183.168C183.058 31.0265 182.893 31.2424 182.673 31.4545C182.454 31.6667 182.171 31.8428 181.827 31.983C181.482 32.1231 181.069 32.1932 180.588 32.1932ZM180.957 30.8295C181.427 30.8295 181.829 30.7367 182.162 30.5511C182.499 30.3655 182.755 30.1231 182.929 29.8239C183.107 29.5208 183.196 29.197 183.196 28.8523V27.7273C183.135 27.7879 183.018 27.8447 182.844 27.8977C182.673 27.947 182.478 27.9905 182.259 28.0284C182.039 28.0625 181.825 28.0947 181.616 28.125C181.408 28.1515 181.234 28.1742 181.094 28.1932C180.764 28.2348 180.463 28.3049 180.19 28.4034C179.921 28.5019 179.705 28.6439 179.543 28.8295C179.384 29.0114 179.304 29.2538 179.304 29.5568C179.304 29.9773 179.459 30.2955 179.77 30.5114C180.08 30.7235 180.476 30.8295 180.957 30.8295ZM193.697 25.4034L192.158 25.6761C192.093 25.4792 191.991 25.2917 191.851 25.1136C191.714 24.9356 191.529 24.7898 191.294 24.6761C191.059 24.5625 190.766 24.5057 190.413 24.5057C189.932 24.5057 189.531 24.6136 189.209 24.8295C188.887 25.0417 188.726 25.3163 188.726 25.6534C188.726 25.9451 188.834 26.1799 189.05 26.358C189.266 26.536 189.614 26.6818 190.095 26.7955L191.482 27.1136C192.285 27.2992 192.883 27.5852 193.277 27.9716C193.671 28.358 193.868 28.8598 193.868 29.4773C193.868 30 193.716 30.4659 193.413 30.875C193.114 31.2803 192.696 31.5985 192.158 31.8295C191.624 32.0606 191.004 32.1761 190.3 32.1761C189.322 32.1761 188.525 31.9678 187.908 31.5511C187.29 31.1307 186.911 30.5341 186.771 29.7614L188.413 29.5114C188.516 29.9394 188.726 30.2633 189.044 30.483C189.362 30.6989 189.777 30.8068 190.288 30.8068C190.845 30.8068 191.29 30.6913 191.624 30.4602C191.957 30.2254 192.124 29.9394 192.124 29.6023C192.124 29.3295 192.021 29.1004 191.817 28.9148C191.616 28.7292 191.307 28.589 190.891 28.4943L189.413 28.1705C188.599 27.9848 187.997 27.6894 187.607 27.2841C187.22 26.8788 187.027 26.3655 187.027 25.7443C187.027 25.2292 187.171 24.7784 187.459 24.392C187.747 24.0057 188.144 23.7045 188.652 23.4886C189.16 23.2689 189.741 23.1591 190.396 23.1591C191.339 23.1591 192.082 23.3636 192.624 23.7727C193.165 24.178 193.523 24.7216 193.697 25.4034ZM202.276 25.4034L200.736 25.6761C200.671 25.4792 200.569 25.2917 200.429 25.1136C200.293 24.9356 200.107 24.7898 199.872 24.6761C199.637 24.5625 199.344 24.5057 198.991 24.5057C198.51 24.5057 198.109 24.6136 197.787 24.8295C197.465 25.0417 197.304 25.3163 197.304 25.6534C197.304 25.9451 197.412 26.1799 197.628 26.358C197.844 26.536 198.192 26.6818 198.673 26.7955L200.06 27.1136C200.863 27.2992 201.461 27.5852 201.855 27.9716C202.249 28.358 202.446 28.8598 202.446 29.4773C202.446 30 202.295 30.4659 201.991 30.875C201.692 31.2803 201.274 31.5985 200.736 31.8295C200.202 32.0606 199.582 32.1761 198.878 32.1761C197.901 32.1761 197.103 31.9678 196.486 31.5511C195.868 31.1307 195.49 30.5341 195.349 29.7614L196.991 29.5114C197.094 29.9394 197.304 30.2633 197.622 30.483C197.94 30.6989 198.355 30.8068 198.866 30.8068C199.423 30.8068 199.868 30.6913 200.202 30.4602C200.535 30.2254 200.702 29.9394 200.702 29.6023C200.702 29.3295 200.599 29.1004 200.395 28.9148C200.194 28.7292 199.885 28.589 199.469 28.4943L197.991 28.1705C197.177 27.9848 196.575 27.6894 196.185 27.2841C195.798 26.8788 195.605 26.3655 195.605 25.7443C195.605 25.2292 195.749 24.7784 196.037 24.392C196.325 24.0057 196.723 23.7045 197.23 23.4886C197.738 23.2689 198.319 23.1591 198.974 23.1591C199.918 23.1591 200.66 23.3636 201.202 23.7727C201.743 24.178 202.101 24.7216 202.276 25.4034ZM206.206 32L203.638 23.2727H205.393L207.104 29.6818H207.189L208.905 23.2727H210.661L212.365 29.6534H212.45L214.149 23.2727H215.905L213.342 32H211.609L209.837 25.6989H209.706L207.933 32H206.206ZM220.928 32.1761C220.109 32.1761 219.395 31.9886 218.786 31.6136C218.176 31.2386 217.702 30.714 217.365 30.0398C217.028 29.3655 216.859 28.5777 216.859 27.6761C216.859 26.7708 217.028 25.9792 217.365 25.3011C217.702 24.6231 218.176 24.0966 218.786 23.7216C219.395 23.3466 220.109 23.1591 220.928 23.1591C221.746 23.1591 222.46 23.3466 223.07 23.7216C223.679 24.0966 224.153 24.6231 224.49 25.3011C224.827 25.9792 224.996 26.7708 224.996 27.6761C224.996 28.5777 224.827 29.3655 224.49 30.0398C224.153 30.714 223.679 31.2386 223.07 31.6136C222.46 31.9886 221.746 32.1761 220.928 32.1761ZM220.933 30.75C221.464 30.75 221.903 30.6098 222.251 30.3295C222.6 30.0492 222.857 29.6761 223.024 29.2102C223.195 28.7443 223.28 28.2311 223.28 27.6705C223.28 27.1136 223.195 26.6023 223.024 26.1364C222.857 25.6667 222.6 25.2898 222.251 25.0057C221.903 24.7216 221.464 24.5795 220.933 24.5795C220.399 24.5795 219.956 24.7216 219.604 25.0057C219.255 25.2898 218.996 25.6667 218.825 26.1364C218.659 26.6023 218.575 27.1136 218.575 27.6705C218.575 28.2311 218.659 28.7443 218.825 29.2102C218.996 29.6761 219.255 30.0492 219.604 30.3295C219.956 30.6098 220.399 30.75 220.933 30.75ZM226.892 32V23.2727H228.534V24.6591H228.625C228.784 24.1894 229.064 23.8201 229.466 23.5511C229.871 23.2784 230.33 23.142 230.841 23.142C230.947 23.142 231.072 23.1458 231.216 23.1534C231.364 23.161 231.479 23.1705 231.562 23.1818V24.8068C231.494 24.7879 231.373 24.767 231.199 24.7443C231.025 24.7178 230.85 24.7045 230.676 24.7045C230.275 24.7045 229.917 24.7898 229.602 24.9602C229.292 25.1269 229.045 25.3598 228.864 25.6591C228.682 25.9545 228.591 26.2917 228.591 26.6705V32H226.892ZM235.987 32.1705C235.283 32.1705 234.654 31.9905 234.101 31.6307C233.552 31.267 233.12 30.75 232.805 30.0795C232.495 29.4053 232.339 28.5966 232.339 27.6534C232.339 26.7102 232.497 25.9034 232.811 25.233C233.129 24.5625 233.565 24.0492 234.118 23.6932C234.671 23.3371 235.298 23.1591 235.999 23.1591C236.54 23.1591 236.976 23.25 237.305 23.4318C237.639 23.6098 237.896 23.8182 238.078 24.0568C238.264 24.2955 238.408 24.5057 238.51 24.6875H238.612V20.3636H240.311V32H238.652V30.642H238.51C238.408 30.8277 238.26 31.0398 238.067 31.2784C237.877 31.517 237.616 31.7254 237.283 31.9034C236.949 32.0814 236.518 32.1705 235.987 32.1705ZM236.362 30.7216C236.851 30.7216 237.264 30.5928 237.601 30.3352C237.942 30.0739 238.199 29.7121 238.374 29.25C238.552 28.7879 238.641 28.25 238.641 27.6364C238.641 27.0303 238.554 26.5 238.379 26.0455C238.205 25.5909 237.949 25.2367 237.612 24.983C237.275 24.7292 236.858 24.6023 236.362 24.6023C235.851 24.6023 235.425 24.7348 235.084 25C234.743 25.2652 234.485 25.6269 234.311 26.0852C234.141 26.5436 234.055 27.0606 234.055 27.6364C234.055 28.2197 234.143 28.7443 234.317 29.2102C234.491 29.6761 234.749 30.0455 235.089 30.3182C235.434 30.5871 235.858 30.7216 236.362 30.7216Z" fill="white"/>
</svg>
