<svg width="20" height="20" viewBox="0 0 20 20" fill="none" xmlns="http://www.w3.org/2000/svg">
<path fill-rule="evenodd" clip-rule="evenodd" d="M15.2658 12.0272C17.3023 9.41176 17.1183 5.6279 14.7141 3.22359C12.1106 0.620092 7.88946 0.620092 5.28597 3.22359C2.68247 5.82709 2.68247 10.0482 5.28597 12.6517C7.69029 15.056 11.4742 15.2399 14.0896 13.2035C14.1008 13.2163 14.1126 13.2288 14.1248 13.2409L17.6603 16.7764C17.9858 17.1019 18.5134 17.1019 18.8388 16.7764C19.1643 16.451 19.1643 15.9234 18.8388 15.5979L15.3033 12.0624C15.2911 12.0503 15.2786 12.0385 15.2658 12.0272ZM13.5355 4.4021C15.4882 6.35472 15.4882 9.52051 13.5355 11.4732C11.5829 13.4258 8.41709 13.4258 6.46448 11.4732C4.51185 9.52051 4.51185 6.35472 6.46448 4.4021C8.41709 2.44948 11.5829 2.44948 13.5355 4.4021Z" fill="black"/>
</svg>
