<svg width="360" height="52" viewBox="0 0 360 52" fill="none" xmlns="http://www.w3.org/2000/svg">
<rect width="360" height="52" rx="4" fill="black"/>
<line x1="156" y1="36" x2="165" y2="36" stroke="#2BCBBA" stroke-width="2" stroke-linecap="round"/>
<path d="M161.625 23.4205C161.564 22.8826 161.314 22.4659 160.875 22.1705C160.436 21.8712 159.883 21.7216 159.216 21.7216C158.739 21.7216 158.326 21.7973 157.977 21.9489C157.629 22.0966 157.358 22.3011 157.165 22.5625C156.975 22.8201 156.881 23.1136 156.881 23.4432C156.881 23.7197 156.945 23.9583 157.074 24.1591C157.206 24.3598 157.379 24.5284 157.591 24.6648C157.807 24.7973 158.038 24.9091 158.284 25C158.53 25.0871 158.767 25.1591 158.994 25.2159L160.131 25.5114C160.502 25.6023 160.883 25.7254 161.273 25.8807C161.663 26.036 162.025 26.2405 162.358 26.4943C162.691 26.7481 162.96 27.0625 163.165 27.4375C163.373 27.8125 163.477 28.2614 163.477 28.7841C163.477 29.4432 163.307 30.0284 162.966 30.5398C162.629 31.0511 162.138 31.4545 161.494 31.75C160.854 32.0455 160.08 32.1932 159.17 32.1932C158.299 32.1932 157.545 32.0549 156.909 31.7784C156.273 31.5019 155.775 31.1098 155.415 30.6023C155.055 30.0909 154.856 29.4848 154.818 28.7841H156.58C156.614 29.2045 156.75 29.5549 156.989 29.8352C157.231 30.1117 157.54 30.3182 157.915 30.4545C158.294 30.5871 158.708 30.6534 159.159 30.6534C159.655 30.6534 160.097 30.5758 160.483 30.4205C160.873 30.2614 161.18 30.0417 161.403 29.7614C161.627 29.4773 161.739 29.1458 161.739 28.767C161.739 28.4223 161.64 28.1402 161.443 27.9205C161.25 27.7008 160.987 27.5189 160.653 27.375C160.324 27.2311 159.951 27.1042 159.534 26.9943L158.159 26.6193C157.227 26.3655 156.489 25.9924 155.943 25.5C155.402 25.0076 155.131 24.3561 155.131 23.5455C155.131 22.875 155.313 22.2898 155.676 21.7898C156.04 21.2898 156.532 20.9015 157.153 20.625C157.775 20.3447 158.475 20.2045 159.256 20.2045C160.044 20.2045 160.739 20.3428 161.341 20.6193C161.947 20.8958 162.424 21.2765 162.773 21.7614C163.121 22.2424 163.303 22.7955 163.318 23.4205H161.625ZM165.439 32V23.2727H167.138V32H165.439ZM166.297 21.9261C166.001 21.9261 165.748 21.8277 165.536 21.6307C165.327 21.4299 165.223 21.1913 165.223 20.9148C165.223 20.6345 165.327 20.3958 165.536 20.1989C165.748 19.9981 166.001 19.8977 166.297 19.8977C166.592 19.8977 166.844 19.9981 167.053 20.1989C167.265 20.3958 167.371 20.6345 167.371 20.9148C167.371 21.1913 167.265 21.4299 167.053 21.6307C166.844 21.8277 166.592 21.9261 166.297 21.9261ZM173.082 35.4545C172.389 35.4545 171.793 35.3636 171.293 35.1818C170.796 35 170.391 34.7595 170.077 34.4602C169.762 34.161 169.527 33.8333 169.372 33.4773L170.832 32.875C170.935 33.0417 171.071 33.2178 171.241 33.4034C171.416 33.5928 171.651 33.7538 171.946 33.8864C172.245 34.0189 172.63 34.0852 173.099 34.0852C173.743 34.0852 174.276 33.928 174.696 33.6136C175.116 33.303 175.327 32.8068 175.327 32.125V30.4091H175.219C175.116 30.5947 174.969 30.8011 174.776 31.0284C174.586 31.2557 174.325 31.4527 173.991 31.6193C173.658 31.786 173.224 31.8693 172.69 31.8693C172.001 31.8693 171.38 31.7083 170.827 31.3864C170.277 31.0606 169.842 30.5814 169.52 29.9489C169.202 29.3125 169.043 28.5303 169.043 27.6023C169.043 26.6742 169.2 25.8788 169.514 25.2159C169.832 24.553 170.268 24.0455 170.821 23.6932C171.374 23.3371 172.001 23.1591 172.702 23.1591C173.243 23.1591 173.681 23.25 174.014 23.4318C174.348 23.6098 174.607 23.8182 174.793 24.0568C174.982 24.2955 175.128 24.5057 175.23 24.6875H175.355V23.2727H177.02V32.1932C177.02 32.9432 176.846 33.5587 176.497 34.0398C176.149 34.5208 175.677 34.8769 175.082 35.108C174.491 35.339 173.825 35.4545 173.082 35.4545ZM173.065 30.4602C173.554 30.4602 173.967 30.3466 174.304 30.1193C174.645 29.8883 174.902 29.5587 175.077 29.1307C175.255 28.6989 175.344 28.1818 175.344 27.5795C175.344 26.9924 175.257 26.4754 175.082 26.0284C174.908 25.5814 174.652 25.233 174.315 24.983C173.978 24.7292 173.562 24.6023 173.065 24.6023C172.554 24.6023 172.128 24.7348 171.787 25C171.446 25.2614 171.188 25.6174 171.014 26.0682C170.844 26.5189 170.759 27.0227 170.759 27.5795C170.759 28.1515 170.846 28.6534 171.02 29.0852C171.194 29.517 171.452 29.8542 171.793 30.0966C172.137 30.339 172.562 30.4602 173.065 30.4602ZM180.997 26.8182V32H179.298V23.2727H180.929V24.6932H181.037C181.238 24.2311 181.552 23.8598 181.98 23.5795C182.412 23.2992 182.955 23.1591 183.611 23.1591C184.205 23.1591 184.726 23.2841 185.173 23.5341C185.62 23.7803 185.967 24.1477 186.213 24.6364C186.459 25.125 186.582 25.7292 186.582 26.4489V32H184.884V26.6534C184.884 26.0208 184.719 25.5265 184.389 25.1705C184.06 24.8106 183.607 24.6307 183.031 24.6307C182.637 24.6307 182.287 24.7159 181.98 24.8864C181.677 25.0568 181.437 25.3068 181.259 25.6364C181.084 25.9621 180.997 26.3561 180.997 26.8182ZM200.714 20.3636H202.476V28.017C202.476 28.8314 202.285 29.553 201.902 30.1818C201.519 30.8068 200.982 31.2992 200.288 31.6591C199.595 32.0152 198.783 32.1932 197.851 32.1932C196.923 32.1932 196.112 32.0152 195.419 31.6591C194.726 31.2992 194.188 30.8068 193.805 30.1818C193.423 29.553 193.232 28.8314 193.232 28.017V20.3636H194.987V27.875C194.987 28.4015 195.103 28.8693 195.334 29.2784C195.569 29.6875 195.9 30.0095 196.328 30.2443C196.756 30.4754 197.264 30.5909 197.851 30.5909C198.442 30.5909 198.951 30.4754 199.379 30.2443C199.811 30.0095 200.141 29.6875 200.368 29.2784C200.599 28.8693 200.714 28.4015 200.714 27.875V20.3636ZM204.892 35.2727V23.2727H206.551V24.6875H206.693C206.792 24.5057 206.934 24.2955 207.119 24.0568C207.305 23.8182 207.563 23.6098 207.892 23.4318C208.222 23.25 208.657 23.1591 209.199 23.1591C209.903 23.1591 210.532 23.3371 211.085 23.6932C211.638 24.0492 212.072 24.5625 212.386 25.233C212.705 25.9034 212.864 26.7102 212.864 27.6534C212.864 28.5966 212.706 29.4053 212.392 30.0795C212.078 30.75 211.646 31.267 211.097 31.6307C210.547 31.9905 209.92 32.1705 209.216 32.1705C208.686 32.1705 208.252 32.0814 207.915 31.9034C207.581 31.7254 207.32 31.517 207.131 31.2784C206.941 31.0398 206.795 30.8277 206.693 30.642H206.591V35.2727H204.892ZM206.557 27.6364C206.557 28.25 206.646 28.7879 206.824 29.25C207.002 29.7121 207.259 30.0739 207.597 30.3352C207.934 30.5928 208.347 30.7216 208.835 30.7216C209.343 30.7216 209.767 30.5871 210.108 30.3182C210.449 30.0455 210.706 29.6761 210.881 29.2102C211.059 28.7443 211.148 28.2197 211.148 27.6364C211.148 27.0606 211.061 26.5436 210.886 26.0852C210.716 25.6269 210.458 25.2652 210.114 25C209.773 24.7348 209.347 24.6023 208.835 24.6023C208.343 24.6023 207.926 24.7292 207.585 24.983C207.248 25.2367 206.992 25.5909 206.818 26.0455C206.644 26.5 206.557 27.0303 206.557 27.6364Z" fill="white"/>
</svg>
